<svg width="36" height="36" viewBox="0 0 36 36" fill="none" xmlns="http://www.w3.org/2000/svg">
<path d="M21.0137 17.9729C21.0137 16.3592 19.6645 15.0508 18 15.0508C16.3356 15.0508 14.9863 16.3592 14.9863 17.9729C14.9863 19.5868 16.3356 20.8951 18 20.8951C19.6645 20.8951 21.0137 19.5868 21.0137 17.9729Z" fill="#53C1DE"/>
<path fill-rule="evenodd" clip-rule="evenodd" d="M27.7879 12.5479C28.4244 10.0404 29.2244 5.39042 26.4042 3.81393C23.5972 2.24432 19.9445 5.25198 18.0157 7.05733C16.0925 5.26997 12.3371 2.27516 9.51933 3.85665C6.71344 5.43153 7.57872 10.0044 8.22926 12.5276C5.61185 13.2485 1.125 14.801 1.125 17.9729C1.125 21.1358 5.60718 22.8249 8.2091 23.545C7.55615 26.0822 6.7342 30.5898 9.54368 32.1611C12.3719 33.7423 16.1157 30.8188 18.0623 28.9937C20.0035 30.8097 23.6212 33.7523 26.4287 32.1766C29.2451 30.5958 28.5115 26.0082 27.861 23.4703C30.3832 22.7486 34.875 21.0964 34.875 17.9729C34.875 14.8314 30.3641 13.2663 27.7879 12.5479ZM27.4683 22.1253C27.0411 20.8143 26.4645 19.4201 25.7592 17.9798C26.4324 16.5736 26.9866 15.1974 27.4018 13.8947C29.2904 14.4256 33.4333 15.639 33.4333 17.9729C33.4333 20.3287 29.4577 21.5535 27.4683 22.1253ZM25.7062 30.9668C23.6116 32.1424 20.4999 29.3284 19.0663 27.991C20.0173 26.9825 20.9677 25.81 21.8953 24.5081C23.527 24.3677 25.0684 24.1382 26.4663 23.8249C26.9242 25.6201 27.8103 29.7858 25.7062 30.9668ZM10.2641 30.95C8.1691 29.7788 9.12665 25.7565 9.60701 23.8875C10.9894 24.184 12.5196 24.3973 14.1552 24.5259C15.0889 25.7999 16.0668 26.9709 17.0523 27.9964C15.8347 29.1384 12.3688 32.1266 10.2641 30.95ZM2.56667 17.9729C2.56667 15.6082 6.68482 14.4037 8.61642 13.8742C9.03883 15.2061 9.59282 16.5987 10.2614 18.0069C9.58416 19.4362 9.02225 20.8509 8.59596 22.1985C6.75415 21.6873 2.56667 20.339 2.56667 17.9729ZM10.2417 5.06648C12.3452 3.88593 15.6091 6.76106 17.0054 8.05515C16.0249 9.07599 15.056 10.2382 14.1304 11.5048C12.5431 11.6474 11.0236 11.8765 9.62673 12.1834C9.10266 10.1483 8.1404 6.24576 10.2417 5.06648ZM22.9267 13.0242C24.0036 13.156 25.0353 13.3312 26.004 13.5457C25.7132 14.4496 25.3507 15.3947 24.9238 16.3635C24.3049 15.2249 23.6406 14.1093 22.9267 13.0242ZM18.0161 9.05412C18.6811 9.75259 19.3471 10.5326 20.0022 11.3788C18.6733 11.3179 17.3422 11.3176 16.0133 11.3779C16.669 10.5395 17.3407 9.7607 18.0161 9.05412ZM11.0886 16.3625C10.6687 15.397 10.3095 14.4477 10.0161 13.531C10.9791 13.322 12.006 13.1512 13.0759 13.0216C12.3599 14.1043 11.6967 15.2195 11.0886 16.3625ZM13.1066 23.0239C12.0013 22.9043 10.9589 22.7423 9.99626 22.5391C10.2942 21.6061 10.6614 20.6364 11.0902 19.6502C11.7068 20.8049 12.38 21.931 13.1066 23.0239ZM18.056 26.9904C17.3727 26.2755 16.6911 25.4847 16.0254 24.6342C17.3619 24.6851 18.701 24.6852 20.0373 24.6274C19.3801 25.4934 18.7165 26.2853 18.056 26.9904ZM24.9376 19.6C25.3887 20.5969 25.7689 21.5614 26.071 22.4785C25.0923 22.6951 24.0359 22.8694 22.9226 22.9989C23.6419 21.8933 24.3167 20.7603 24.9376 19.6ZM21.0907 23.1683C19.0464 23.3099 16.9893 23.3084 14.9443 23.1799C13.7822 21.5341 12.7479 19.8033 11.855 18.0065C12.7435 16.2134 13.7704 14.486 14.927 12.8428C16.9735 12.6928 19.0326 12.6924 21.079 12.8436C22.2256 14.4868 23.2509 16.2097 24.1601 17.9866C23.2617 19.7789 22.2295 21.5098 21.0907 23.1683ZM25.6841 5.02492C27.7882 6.2016 26.8516 10.3807 26.3919 12.1979C24.9918 11.8846 23.4713 11.6515 21.8793 11.5067C20.9519 10.2263 19.991 9.06208 19.0264 8.05442C20.4407 6.73246 23.6003 3.85975 25.6841 5.02492Z" fill="#53C1DE"/>
</svg>
