<svg width="18" height="18" viewBox="0 0 18 18" fill="none" xmlns="http://www.w3.org/2000/svg">
<path d="M17.3471 14.2997C17.3471 14.6011 17.2802 14.9108 17.1378 15.2122C16.9955 15.5136 16.8113 15.7983 16.5685 16.0662C16.1583 16.5183 15.7062 16.8448 15.1955 17.0541C14.6932 17.2634 14.149 17.3723 13.5629 17.3723C12.709 17.3723 11.7964 17.1713 10.8336 16.7611C9.87079 16.3508 8.90799 15.7983 7.95356 15.1034C6.99076 14.4001 6.07819 13.6215 5.20749 12.7592C4.34516 11.8885 3.56654 10.9759 2.87165 10.0215C2.18514 9.06706 1.63257 8.11263 1.23071 7.16658C0.828845 6.21215 0.627913 5.29958 0.627913 4.42888C0.627913 3.85957 0.728379 3.31538 0.929311 2.81305C1.13024 2.30235 1.44839 1.83351 1.89211 1.4149C2.42793 0.88745 3.01398 0.627913 3.63352 0.627913C3.86794 0.627913 4.10236 0.678146 4.31167 0.778612C4.52934 0.879078 4.7219 1.02978 4.8726 1.24745L6.81495 3.98515C6.96565 4.19446 7.07448 4.38702 7.14983 4.5712C7.22518 4.74702 7.26704 4.92284 7.26704 5.08191C7.26704 5.28284 7.20844 5.48377 7.09123 5.67633C6.98239 5.86889 6.82332 6.06982 6.62239 6.27075L5.9861 6.93216C5.89401 7.02425 5.85215 7.13309 5.85215 7.26704C5.85215 7.33402 5.86052 7.39263 5.87726 7.4596C5.90238 7.52658 5.9275 7.57681 5.94424 7.62705C6.09494 7.90333 6.35448 8.26333 6.72285 8.69868C7.0996 9.13404 7.50146 9.57776 7.93682 10.0215C8.38891 10.4652 8.82427 10.8754 9.26799 11.2522C9.70334 11.6206 10.0633 11.8717 10.348 12.0224C10.3899 12.0392 10.4401 12.0643 10.4987 12.0894C10.5657 12.1145 10.6327 12.1229 10.708 12.1229C10.8503 12.1229 10.9592 12.0727 11.0513 11.9806L11.6875 11.3527C11.8969 11.1434 12.0978 10.9843 12.2903 10.8838C12.4829 10.7666 12.6755 10.708 12.8848 10.708C13.0438 10.708 13.2113 10.7415 13.3955 10.8168C13.5797 10.8922 13.7722 11.001 13.9815 11.1434L16.7527 13.1108C16.9704 13.2615 17.1211 13.4373 17.2132 13.6466C17.2969 13.8559 17.3471 14.0652 17.3471 14.2997Z" stroke="#E7E8EC" stroke-width="1.25" stroke-miterlimit="10"/>
</svg>
