<svg width="1170" height="198" viewBox="0 0 1170 198" fill="none" xmlns="http://www.w3.org/2000/svg">
<mask id="mask0_2422_559" style="mask-type:alpha" maskUnits="userSpaceOnUse" x="0" y="0" width="1170" height="198">
<rect width="1170" height="198" fill="#0B1121"/>
</mask>
<g mask="url(#mask0_2422_559)">
<path opacity="0.3" d="M713.253 121.161V191.465L652.021 156.103V227.619L713.942 263.366V192.257L774.52 157.308V298.315L835.712 333.705V404.773L897.288 369.225L958.177 404.374V474.285L896.91 438.93V510.439L958.177 545.787V546.187L958.521 545.987L958.865 546.187V545.787L1019.93 510.535L1020.1 510.439V440.121L1080.68 475.077V546.187L1142.43 510.535L1142.6 510.439V369.425L1203.14 404.374V615.706L1142.58 580.736V580.344L1142.23 580.544L1141.89 580.344V580.736L1080.83 615.988L1080.66 616.091V687.593L1141.89 652.238V793.246L1203.12 828.601V829L1203.47 828.8L1203.81 829V828.601L1264.86 793.349L1265.04 793.246V722.941L1325.61 757.897V758.297L1325.96 758.097L1326.3 758.297V757.897L1387.36 722.646L1387.53 722.549V652.238L1448.08 687.194V758.297L1509.83 722.646L1510 722.549V651.047L1448.73 686.409V616.491L1509.79 581.239L1509.97 581.136V509.641L1448.7 544.989V474.678L1387.47 439.33V369.425L1448.7 404.773V333.705L1509.76 298.453L1509.93 298.35V226.82L1448.22 262.471L1448.05 262.568V332.872L1387.49 297.909V157.308L1448.72 192.656V121.161L1387.49 85.806V-56L1325.74 -20.3489L1325.57 -20.2525V50.0929L1264.99 15.137V14.7378L1264.64 14.9374L1264.3 14.7378V15.137L1203.8 50.0929V-20.2525L1142.58 -55.6007V-56L1142.23 -55.8004L1141.89 -56V-55.6007L1080.83 -20.3489L1080.66 -20.2525V120.762L1020.08 85.806V-56L958.5 -20.4521L897.44 -55.704L896.923 -56V15.1026L835.863 50.3614L835.691 50.4577V120.762L775.154 85.806V-56L713.577 -20.4521L652.516 -55.704L652 -56V15.495L713.233 50.857V121.161H713.253ZM713.942 120.762V50.857L769.289 18.8956L774.486 15.8942V85.806L729.169 111.964L713.942 120.762ZM713.253 262.169L652.709 227.22V157.308L713.253 192.257V262.169ZM713.942 121.553L759.252 95.3951L774.486 86.5769V156.509L713.907 191.465L713.942 121.553ZM775.209 157.308L805.498 174.779L835.787 192.257V262.169L805.498 244.697L775.209 227.22V157.308ZM836.434 121.553L897.495 86.3085L897.667 86.2052V15.8942L958.246 50.857V191.465L896.979 156.11V297.909L836.434 332.865V121.533V121.553ZM1019.41 15.8942V85.806L973.79 112.15L958.865 120.762V50.857L1015.4 18.2072L1019.41 15.8942ZM1081.36 121.553L1142.25 86.4048L1203.14 121.553V121.953L1203.49 121.753L1203.83 121.953V121.553L1264.72 86.4048L1325.6 121.553V262.169L1265.02 227.22V226.82L1264.68 227.02L1264.33 226.82V227.22L1203.28 262.471L1203.11 262.568V332.872L1142.58 297.909V226.82L1080.83 262.471L1080.66 262.568V403.582L1020.08 368.626V368.234L1019.73 368.427L1019.39 368.234V368.626L958.845 403.582V333.705L1019.91 298.453L1020.08 298.35V157.308L1081.34 192.656L1081.36 121.553ZM1203.14 50.857V120.762L1142.58 85.806V15.8942L1172.87 33.3722L1203.14 50.857ZM1382.81 18.2072L1386.82 15.8942V85.806L1341.2 112.15L1326.27 120.762V50.857L1382.81 18.2072ZM1341.47 182.73L1326.27 191.5V121.553L1371.9 95.2161L1386.8 86.5769V156.509L1341.47 182.73ZM1386.82 228.046V297.909L1341.2 324.253L1326.27 332.865V262.967L1371.63 236.809L1386.82 228.046ZM1341.47 394.847L1326.27 403.617V333.705L1371.9 307.361L1386.82 298.749V368.626L1341.47 394.847ZM1325.93 475.311L1326.27 475.511V475.112L1386.82 440.156V580.736L1325.93 615.892L1265.04 580.736V440.121L1325.62 475.077V475.511L1325.93 475.311ZM1448.05 545.822V615.692L1417.76 598.214L1387.47 580.736V510.831L1417.76 528.309L1448.05 545.822ZM1330.26 684.089L1326.25 686.402V616.491L1386.8 581.521V651.426L1330.26 684.089ZM1219.28 748.164L1203.8 757.113V687.194L1264.33 652.238V722.15L1219.28 748.164ZM1264.33 651.047V651.447L1203.8 686.409V616.491L1264.33 581.521V651.047ZM1265.02 651.447V581.521L1325.6 616.477V686.389L1295.31 668.911L1265.02 651.447ZM1325.6 474.292L1265.02 439.336V369.425L1325.6 404.374V474.285V474.292ZM1264.71 368.434L1264.37 368.241V368.633L1203.83 403.589V333.705L1264.72 298.549L1325.57 333.705V403.582L1264.99 368.626V368.234L1264.71 368.434ZM1264.37 297.93L1203.83 332.879V262.967L1264.37 228.011V297.93ZM1325.63 263.373V332.899L1265.06 297.95V228.011L1325.63 262.967V263.373ZM1096.59 394.853L1081.31 403.582V333.705L1126.93 307.361L1141.89 298.715V368.626L1096.59 394.853ZM1081.4 332.899V262.967L1141.89 228.011V297.909L1096.26 324.253L1081.4 332.899ZM897.633 297.909V228.011L927.922 245.489L958.211 262.967V332.872L927.922 315.394L897.633 297.909ZM1019.41 157.301V227.22L974.058 253.378L958.865 262.141V192.257L1004.22 166.098L1019.41 157.301ZM1019.41 228.004V297.909L958.865 332.858V262.967L1004.22 236.809L1019.41 228.004ZM958.177 192.649V262.175L927.887 244.704L897.598 227.226V157.308L958.177 192.257V192.649ZM974.058 182.688L958.865 191.458V121.553L1004.48 95.2161L1019.41 86.5769V156.509L974.058 182.688ZM775.174 228.004L805.464 245.482L835.753 262.96V332.872L775.174 297.909V228.004ZM836.4 334.056V333.705L896.944 298.749V368.626L836.4 403.582V334.056ZM897.633 298.708L927.922 316.186L958.211 333.664V403.582L897.633 368.626V298.708ZM958.9 404.367L1019.44 369.418V439.33L973.824 465.667L958.9 474.285V404.374V404.367ZM897.633 510.033V440.121L958.211 475.077V544.989L897.633 510.033ZM1019.41 510.033L958.865 544.982V475.077L1004.48 448.74L1019.41 440.121V510.033ZM1020.1 438.923V369.397L1080.68 404.346V474.285L1020.1 439.33V438.923ZM1141.89 510.04L1081.31 544.989V475.077L1126.93 448.74L1141.89 440.121V510.04ZM1096.25 465.667L1081.31 474.285V404.374L1126.66 378.215L1141.89 369.425V439.33L1096.25 465.667ZM1142.58 368.234V298.708L1203.11 333.705V403.582L1142.58 368.626V368.234ZM1203.81 404.374L1264.35 369.425V439.33L1219.04 465.488L1203.81 474.285V404.374ZM1249.12 448.919L1264.35 440.121V510.04L1219.28 536.088L1203.8 545.037V475.077L1249.12 448.919ZM1248.86 519.773L1264.35 510.825V580.736L1203.81 615.692V545.787L1248.86 519.773ZM1081.31 686.402V616.491L1141.89 581.521V651.426L1081.31 686.402ZM1142.58 792.853V581.521L1203.12 616.477V827.809L1142.58 792.853ZM1264.35 792.853L1203.81 827.802V757.897L1248.86 731.884L1264.35 722.935V792.853ZM1265.04 722.15V652.238L1295.32 669.716L1325.61 687.194V757.106L1265.04 722.15ZM1386.81 722.15L1326.27 757.106V687.194L1382.81 654.551L1386.81 652.238V722.15ZM1387.5 651.04V581.521L1417.79 598.999L1448.08 616.477V686.389L1387.53 651.426L1387.5 651.04ZM1509.28 652.238V722.15L1448.7 757.106V687.194L1509.28 652.238ZM1509.28 580.736L1448.7 615.692V545.787L1509.28 510.831V580.736ZM1448.01 544.989L1417.72 527.518L1387.43 510.04V440.121L1447.98 475.077L1448.01 544.989ZM1386.78 439.33L1326.23 474.285V404.374L1371.59 378.215L1386.78 369.445V439.33ZM1448.7 262.967L1509.28 228.011V297.909L1448.7 332.858V262.967ZM1448.01 334.063V403.589L1387.47 368.633V298.715L1448.03 333.705L1448.01 334.063ZM1341.45 253.405L1326.25 262.169V192.257L1371.61 166.098L1386.8 157.335V227.22L1341.45 253.405ZM1448.03 191.451L1387.49 156.496V86.5769L1448.03 121.526V191.451ZM1326.25 -19.8808L1386.8 -54.8366V15.1026L1330.26 47.7455L1326.25 50.0585V-19.8808ZM1325.57 50.8295V120.762L1264.99 85.806V15.8942L1325.57 50.8295ZM1264.3 85.7784L1203.76 120.734V50.857L1264.3 15.8942V85.7784ZM1203.11 -19.8532V50.0929L1172.82 32.615L1142.53 15.137V-54.8091L1203.11 -19.8532ZM1081.33 -19.8532L1141.89 -54.8091V15.1026L1085.35 47.7455L1081.31 50.0929L1081.33 -19.8532ZM1137.87 18.2072L1141.87 15.8942V85.806L1081.31 120.762V50.857L1137.87 18.2072ZM1080.62 121.953V191.479L1020.04 156.523V86.5769L1080.62 121.526V121.953ZM1019.35 15.1026L962.906 47.7455L958.9 50.0585V-19.8532L1019.44 -54.8091L1019.35 15.1026ZM897.633 -54.8091L958.211 -19.8532V50.0929L897.633 15.137V-54.8091ZM836.4 50.857L896.944 15.8942V85.806L836.4 120.762V50.857ZM835.712 121.953V191.479L805.422 174.001L775.133 156.523V86.5769L835.67 121.526L835.712 121.953ZM774.486 15.1026L719.132 47.064L713.942 50.0585V-19.8532L774.52 -54.8091L774.486 15.1026ZM652.709 -54.8091L713.253 -19.8532V50.0929L652.709 15.137V-54.8091Z" fill="white"/>
<path opacity="0.3" d="M-168.747 157.161V227.465L-229.979 192.103V263.619L-168.058 299.366V228.257L-107.48 193.308V334.315L-46.2884 369.705V440.773L15.2884 405.225L76.1768 440.374V510.285L14.9097 474.93V546.439L76.1768 581.787V582.187L76.5209 581.987L76.8651 582.187V581.787L137.926 546.535L138.098 546.439V476.121L198.677 511.077V582.187L260.425 546.535L260.598 546.439V405.425L321.142 440.374V651.706L260.577 616.736V616.344L260.233 616.544L259.888 616.344V616.736L198.828 651.988L198.656 652.091V723.593L259.888 688.238V829.246L321.121 864.601V865L321.465 864.8L321.809 865V864.601L382.863 829.349L383.035 829.246V758.941L443.614 793.897V794.297L443.958 794.097L444.302 794.297V793.897L505.363 758.646L505.535 758.549V688.238L566.079 723.194V794.297L627.828 758.646L628 758.549V687.047L566.733 722.409V652.491L627.793 617.239L627.966 617.136V545.641L566.699 580.989V510.678L505.466 475.33V405.425L566.699 440.773V369.705L627.759 334.453L627.931 334.35V262.82L566.224 298.471L566.051 298.568V368.872L505.487 333.909V193.308L566.719 228.656V157.161L505.487 121.806V-20L443.738 15.6511L443.566 15.7475V86.0929L382.987 51.137V50.7378L382.643 50.9374L382.299 50.7378V51.137L321.796 86.0929V15.7475L260.577 -19.6007V-20L260.233 -19.8004L259.888 -20V-19.6007L198.828 15.6511L198.656 15.7475V156.762L138.077 121.806V-20L76.5004 15.5479L15.4398 -19.704L14.9235 -20V51.1026L-46.137 86.3614L-46.3091 86.4577V156.762L-106.846 121.806V-20L-168.423 15.5479L-229.484 -19.704L-230 -20V51.495L-168.767 86.857V157.161H-168.747ZM-168.058 156.762V86.857L-112.711 54.8956L-107.514 51.8942V121.806L-152.831 147.964L-168.058 156.762ZM-168.747 298.169L-229.291 263.22V193.308L-168.747 228.257V298.169ZM-168.058 157.553L-122.748 131.395L-107.514 122.577V192.509L-168.093 227.465L-168.058 157.553ZM-106.791 193.308L-76.5019 210.779L-46.2126 228.257V298.169L-76.5019 280.697L-106.791 263.22V193.308ZM-45.5656 157.553L15.4949 122.308L15.667 122.205V51.8942L76.2457 86.857V227.465L14.9786 192.11V333.909L-45.5656 368.865V157.533V157.553ZM137.409 51.8942V121.806L91.7896 148.15L76.8651 156.762V86.857L133.403 54.2072L137.409 51.8942ZM199.365 157.553L260.253 122.405L321.142 157.553V157.953L321.486 157.753L321.83 157.953V157.553L382.718 122.405L443.6 157.553V298.169L383.021 263.22V262.82L382.677 263.02L382.333 262.82V263.22L321.279 298.471L321.107 298.568V368.872L260.577 333.909V262.82L198.828 298.471L198.656 298.568V439.582L138.077 404.626V404.234L137.733 404.427L137.389 404.234V404.626L76.8446 439.582V369.705L137.905 334.453L138.077 334.35V193.308L199.344 228.656L199.365 157.553ZM321.142 86.857V156.762L260.577 121.806V51.8942L290.866 69.3722L321.142 86.857ZM500.812 54.2072L504.819 51.8942V121.806L459.199 148.15L444.275 156.762V86.857L500.812 54.2072ZM459.467 218.73L444.275 227.5V157.553L489.901 131.216L504.798 122.577V192.509L459.467 218.73ZM504.819 264.046V333.909L459.199 360.253L444.275 368.865V298.967L489.633 272.809L504.819 264.046ZM459.467 430.847L444.275 439.617V369.705L489.901 343.361L504.819 334.749V404.626L459.467 430.847ZM443.931 511.311L444.275 511.511V511.112L504.819 476.156V616.736L443.931 651.892L383.042 616.736V476.121L443.621 511.077V511.511L443.931 511.311ZM566.051 581.822V651.692L535.762 634.214L505.473 616.736V546.831L535.762 564.309L566.051 581.822ZM448.26 720.089L444.254 722.402V652.491L504.798 617.521V687.426L448.26 720.089ZM337.278 784.164L321.796 793.113V723.194L382.333 688.238V758.15L337.278 784.164ZM382.333 687.047V687.447L321.796 722.409V652.491L382.333 617.521V687.047ZM383.021 687.447V617.521L443.6 652.477V722.389L413.311 704.911L383.021 687.447ZM443.6 510.292L383.021 475.336V405.425L443.6 440.374V510.285V510.292ZM382.712 404.434L382.367 404.241V404.633L321.83 439.589V369.705L382.718 334.549L443.566 369.705V439.582L382.987 404.626V404.234L382.712 404.434ZM382.367 333.93L321.83 368.879V298.967L382.367 264.011V333.93ZM443.634 299.373V368.899L383.056 333.95V264.011L443.634 298.967V299.373ZM214.585 430.853L199.31 439.582V369.705L244.93 343.361L259.888 334.715V404.626L214.585 430.853ZM199.399 368.899V298.967L259.888 264.011V333.909L214.262 360.253L199.399 368.899ZM15.6326 333.909V264.011L45.9219 281.489L76.2112 298.967V368.872L45.9219 351.394L15.6326 333.909ZM137.409 193.301V263.22L92.058 289.378L76.8651 298.141V228.257L122.223 202.098L137.409 193.301ZM137.409 264.004V333.909L76.8651 368.858V298.967L122.223 272.809L137.409 264.004ZM76.1768 228.649V298.175L45.8874 280.704L15.5981 263.226V193.308L76.1768 228.257V228.649ZM92.058 218.688L76.8651 227.458V157.553L122.485 131.216L137.409 122.577V192.509L92.058 218.688ZM-106.826 264.004L-76.5364 281.482L-46.2471 298.96V368.872L-106.826 333.909V264.004ZM-45.6 370.056V369.705L14.9442 334.749V404.626L-45.6 439.582V370.056ZM15.6326 334.708L45.9219 352.186L76.2112 369.664V439.582L15.6326 404.626V334.708ZM76.8996 440.367L137.444 405.418V475.33L91.8241 501.667L76.8996 510.285V440.374V440.367ZM15.6326 546.033V476.121L76.2112 511.077V580.989L15.6326 546.033ZM137.409 546.033L76.8651 580.982V511.077L122.485 484.74L137.409 476.121V546.033ZM138.098 474.923V405.397L198.677 440.346V510.285L138.098 475.33V474.923ZM259.888 546.04L199.31 580.989V511.077L244.93 484.74L259.888 476.121V546.04ZM214.248 501.667L199.31 510.285V440.374L244.661 414.215L259.888 405.425V475.33L214.248 501.667ZM260.577 404.234V334.708L321.107 369.705V439.582L260.577 404.626V404.234ZM321.809 440.374L382.347 405.425V475.33L337.037 501.488L321.809 510.285V440.374ZM367.12 484.919L382.347 476.121V546.04L337.278 572.088L321.796 581.037V511.077L367.12 484.919ZM366.865 555.773L382.347 546.825V616.736L321.809 651.692V581.787L366.865 555.773ZM199.31 722.402V652.491L259.888 617.521V687.426L199.31 722.402ZM260.577 828.853V617.521L321.121 652.477V863.809L260.577 828.853ZM382.347 828.853L321.809 863.802V793.897L366.865 767.884L382.347 758.935V828.853ZM383.035 758.15V688.238L413.324 705.716L443.614 723.194V793.106L383.035 758.15ZM504.812 758.15L444.268 793.106V723.194L500.806 690.551L504.812 688.238V758.15ZM505.5 687.04V617.521L535.79 634.999L566.079 652.477V722.389L505.535 687.426L505.5 687.04ZM627.277 688.238V758.15L566.699 793.106V723.194L627.277 688.238ZM627.277 616.736L566.699 651.692V581.787L627.277 546.831V616.736ZM566.01 580.989L535.721 563.518L505.432 546.04V476.121L565.976 511.077L566.01 580.989ZM504.778 475.33L444.233 510.285V440.374L489.592 414.215L504.778 405.445V475.33ZM566.699 298.967L627.277 264.011V333.909L566.699 368.858V298.967ZM566.01 370.063V439.589L505.466 404.633V334.715L566.031 369.705L566.01 370.063ZM459.447 289.405L444.254 298.169V228.257L489.612 202.098L504.798 193.335V263.22L459.447 289.405ZM566.031 227.451L505.487 192.496V122.577L566.031 157.526V227.451ZM444.254 16.1192L504.798 -18.8366V51.1026L448.26 83.7455L444.254 86.0585V16.1192ZM443.566 86.8295V156.762L382.987 121.806V51.8942L443.566 86.8295ZM382.299 121.778L321.761 156.734V86.857L382.299 51.8942V121.778ZM321.107 16.1468V86.0929L290.818 68.615L260.529 51.137V-18.8091L321.107 16.1468ZM199.33 16.1468L259.888 -18.8091V51.1026L203.351 83.7455L199.31 86.0929L199.33 16.1468ZM255.868 54.2072L259.875 51.8942V121.806L199.31 156.762V86.857L255.868 54.2072ZM198.621 157.953V227.479L138.043 192.523V122.577L198.621 157.526V157.953ZM137.354 51.1026L80.9061 83.7455L76.8996 86.0585V16.1468L137.444 -18.8091L137.354 51.1026ZM15.6326 -18.8091L76.2112 16.1468V86.0929L15.6326 51.137V-18.8091ZM-45.6 86.857L14.9442 51.8942V121.806L-45.6 156.762V86.857ZM-46.2884 157.953V227.479L-76.5777 210.001L-106.867 192.523V122.577L-46.3297 157.526L-46.2884 157.953ZM-107.514 51.1026L-162.868 83.064L-168.058 86.0585V16.1468L-107.48 -18.8091L-107.514 51.1026ZM-229.291 -18.8091L-168.747 16.1468V86.0929L-229.291 51.137V-18.8091Z" fill="white"/>
<g opacity="0.2" filter="url(#filter0_f_2422_559)">
<circle cx="1138.5" cy="127.5" r="159.5" fill="#FF3B56"/>
</g>
<g opacity="0.3" filter="url(#filter1_f_2422_559)">
<ellipse cx="-60" cy="200.5" rx="186" ry="186.5" fill="#8851F8"/>
</g>
</g>
<defs>
<filter id="filter0_f_2422_559" x="479" y="-532" width="1319" height="1319" filterUnits="userSpaceOnUse" color-interpolation-filters="sRGB">
<feFlood flood-opacity="0" result="BackgroundImageFix"/>
<feBlend mode="normal" in="SourceGraphic" in2="BackgroundImageFix" result="shape"/>
<feGaussianBlur stdDeviation="250" result="effect1_foregroundBlur_2422_559"/>
</filter>
<filter id="filter1_f_2422_559" x="-746" y="-486" width="1372" height="1373" filterUnits="userSpaceOnUse" color-interpolation-filters="sRGB">
<feFlood flood-opacity="0" result="BackgroundImageFix"/>
<feBlend mode="normal" in="SourceGraphic" in2="BackgroundImageFix" result="shape"/>
<feGaussianBlur stdDeviation="250" result="effect1_foregroundBlur_2422_559"/>
</filter>
</defs>
</svg>
