<svg width="223" height="223" viewBox="0 0 223 223" fill="none" xmlns="http://www.w3.org/2000/svg">
<g opacity="0.1">
<path d="M14.6332 56.2466L56.2712 14.6085C48.879 18.8327 42.0147 23.8866 35.8042 29.6193L29.644 35.7796C23.9112 42.0152 18.8573 48.8544 14.6332 56.2466Z" fill="white"/>
<path d="M2.21241 89.3358L89.3607 2.18756C86.9469 2.6653 84.5834 3.24356 82.2199 3.87215L3.89704 82.1949C3.2433 84.5585 2.69014 86.9471 2.21241 89.3358Z" fill="white"/>
<path d="M0 111.487C0 111.714 0 111.965 0 112.191L112.191 0C111.965 0 111.714 0 111.487 0C109.878 0 108.244 0.050309 106.66 0.100597L0.100558 106.66C0.0502706 108.269 0 109.878 0 111.487Z" fill="white"/>
<path d="M1.73475 131.15L131.15 1.73495C129.591 1.45837 128.007 1.20699 126.448 1.00584L1.0056 126.448C1.20675 128.007 1.45817 129.591 1.73475 131.15Z" fill="white"/>
<path d="M5.95941 147.569L147.569 5.95914C146.211 5.48141 144.828 5.05392 143.445 4.65162L4.65192 143.445C5.05422 144.828 5.50682 146.211 5.95941 147.569Z" fill="white"/>
<path d="M12.1191 162.077L162.102 12.0941C160.895 11.4655 159.663 10.8873 158.431 10.309L10.3339 158.406C10.9122 159.663 11.4905 160.87 12.1191 162.077Z" fill="white"/>
<path d="M19.8628 175.001L175.025 19.8385C173.944 19.0842 172.863 18.355 171.756 17.651L17.6754 171.732C18.3794 172.863 19.1085 173.945 19.8628 175.001Z" fill="white"/>
<path d="M29.0152 186.516L186.516 29.0159C185.56 28.1611 184.605 27.3061 183.624 26.4764L26.4757 183.625C27.3054 184.606 28.1351 185.561 29.0152 186.516Z" fill="white"/>
<path d="M39.5259 196.649L196.649 39.526C195.82 38.5454 194.965 37.5648 194.11 36.6093L36.6093 194.11C37.5899 194.99 38.5453 195.82 39.5259 196.649Z" fill="white"/>
<path d="M51.4187 205.45L205.449 51.419C204.745 50.3127 204.016 49.2315 203.262 48.1503L48.15 203.262C49.2311 203.991 50.3123 204.721 51.4187 205.45Z" fill="white"/>
<path d="M64.7704 212.741L212.741 64.7704C212.163 63.5383 211.585 62.3063 210.956 61.0994L61.0743 210.981C62.3063 211.585 63.5383 212.188 64.7704 212.741Z" fill="white"/>
<path d="M79.7807 218.399L218.423 79.756C218.021 78.3731 217.569 76.9902 217.116 75.6325L75.6571 217.091C76.9897 217.569 78.3726 217.996 79.7807 218.399Z" fill="white"/>
<path d="M96.8039 222.019L222.02 96.8034C221.819 95.2194 221.567 93.6354 221.291 92.0765L92.0768 221.29C93.6609 221.592 95.2198 221.818 96.8039 222.019Z" fill="white"/>
<path d="M111.487 223C113.222 223 114.932 222.95 116.616 222.874L222.849 116.642C222.924 114.932 222.974 113.222 222.974 111.513C222.974 111.362 222.974 111.236 222.974 111.085L111.06 223C111.21 223 111.361 223 111.487 223Z" fill="white"/>
<path d="M141.182 219.002L219.002 141.182C219.656 138.819 220.234 136.43 220.737 134.016L134.016 220.737C136.43 220.234 138.818 219.631 141.182 219.002Z" fill="white"/>
<path d="M207.964 167.432L167.407 207.989C184.203 198.208 198.208 184.203 207.964 167.432Z" fill="white"/>
</g>
</svg>
