<svg width="67" height="65" viewBox="0 0 67 65" fill="none" xmlns="http://www.w3.org/2000/svg">
<path opacity="0.5" d="M67 26.5604C67 48.2233 51.1181 65 29.6047 65C8.09123 65 0 59.9905 0 38.3276C0 16.6647 8.09123 11.6551 29.6047 11.6551C44.407 12.4399 67 4.89748 67 26.5604Z" fill="#8851F8"/>
<g clip-path="url(#clip0_2417_547)">
<path d="M13.0036 35.8956C18.3297 42.2623 24.7413 47.2752 32.0591 50.8222C34.8453 52.1426 38.5713 53.7091 42.7226 53.9776C42.98 53.9888 43.2261 54 43.4835 54C46.2696 54 48.5075 53.0377 50.3314 51.0572C50.3426 51.046 50.365 51.0236 50.3761 51.0012C51.0251 50.218 51.7636 49.5131 52.5357 48.7634C53.0616 48.2598 53.5987 47.7339 54.1134 47.1968C56.4967 44.7128 56.4967 41.5574 54.091 39.1517L47.3662 32.4269C46.2249 31.2408 44.8598 30.6142 43.4275 30.6142C41.9953 30.6142 40.619 31.2408 39.4441 32.4157L35.4383 36.4215C35.0691 36.2089 34.6886 36.0186 34.3306 35.8396C33.883 35.6158 33.469 35.4032 33.0997 35.1683C29.452 32.8521 26.1399 29.8309 22.9733 25.9482C21.3732 23.9229 20.2991 22.2221 19.5494 20.4878C20.6012 19.5367 21.5858 18.5408 22.5369 17.5673C22.8726 17.2205 23.2195 16.8736 23.5664 16.5267C24.7748 15.3183 25.4238 13.9196 25.4238 12.4985C25.4238 11.0775 24.786 9.67882 23.5664 8.47037L20.2319 5.13593C19.8403 4.7443 19.471 4.36386 19.0906 3.97223C18.3521 3.21136 17.58 2.4281 16.8192 1.72317C15.6667 0.593038 14.3127 0 12.8805 0C11.4594 0 10.0943 0.593038 8.89708 1.73436L4.71224 5.91919C3.19049 7.44095 2.3289 9.28719 2.14987 11.4244C1.93727 14.0986 2.42961 16.9407 3.7052 20.3759C5.66334 25.6908 8.61734 30.6254 13.0036 35.8956ZM4.88008 11.6593C5.01436 10.1712 5.58502 8.92913 6.6592 7.85495L10.8217 3.6925C11.4706 3.06589 12.1868 2.7414 12.8805 2.7414C13.5631 2.7414 14.2568 3.06589 14.8946 3.71488C15.6443 4.40862 16.3492 5.13593 17.1101 5.908C17.4905 6.29963 17.8822 6.69126 18.2738 7.09407L21.6082 10.4285C22.302 11.1223 22.66 11.8272 22.66 12.5209C22.66 13.2147 22.302 13.9196 21.6082 14.6133C21.2614 14.9602 20.9145 15.3183 20.5676 15.6651C19.527 16.7169 18.5535 17.7128 17.4793 18.6639L17.4234 18.7199C16.4947 19.6486 16.6401 20.5325 16.8639 21.2039C16.8751 21.2375 16.8863 21.2598 16.8975 21.2934C17.7591 23.3634 18.9563 25.3328 20.825 27.6826C24.1818 31.8226 27.7176 35.034 31.6115 37.5068C32.0927 37.8201 32.6074 38.0663 33.0885 38.3125C33.5361 38.5363 33.9501 38.7489 34.3194 38.9838C34.3641 39.0062 34.3977 39.0286 34.4425 39.051C34.8117 39.2412 35.1698 39.3307 35.5278 39.3307C36.423 39.3307 37.0048 38.7601 37.195 38.5698L41.3799 34.385C42.0289 33.736 42.7338 33.3891 43.4275 33.3891C44.2779 33.3891 44.9717 33.915 45.4081 34.385L52.1553 41.121C53.498 42.4637 53.4868 43.9184 52.1217 45.3394C51.6517 45.8429 51.1594 46.3241 50.6335 46.8276C49.8502 47.5885 49.0334 48.3717 48.2949 49.2557C47.0081 50.6432 45.4752 51.2922 43.4947 51.2922C43.3044 51.2922 43.103 51.281 42.9128 51.2698C39.2427 51.0348 35.8299 49.6026 33.2676 48.3829C26.3078 45.0149 20.1984 40.237 15.1296 34.1724C10.9559 29.1484 8.14739 24.4712 6.28995 19.4583C5.13744 16.3813 4.70105 13.9084 4.88008 11.6593Z" fill="white"/>
</g>
<defs>
<clipPath id="clip0_2417_547">
<rect width="54" height="54" fill="white" transform="translate(2)"/>
</clipPath>
</defs>
</svg>
