<svg width="318" height="191" viewBox="0 0 318 191" fill="none" xmlns="http://www.w3.org/2000/svg">
<path opacity="0.3" d="M234.853 5.33762C234.853 8.28548 237.243 10.6752 240.191 10.6752C243.138 10.6752 245.528 8.28548 245.528 5.33762C245.528 2.38976 243.138 4.05634e-05 240.191 4.05634e-05C237.243 4.05634e-05 234.853 2.38976 234.853 5.33762ZM0.802186 152.975C0.260455 153.085 -0.089784 153.613 0.0199052 154.154L1.8074 162.982C1.91709 163.524 2.44517 163.874 2.9869 163.765C3.52863 163.655 3.87887 163.127 3.76918 162.585L2.1803 154.738L10.0274 153.149C10.5692 153.04 10.9194 152.511 10.8097 151.97C10.7 151.428 10.1719 151.078 9.6302 151.187L0.802186 152.975ZM11.6208 161.674C12.1008 161.948 12.7121 161.782 12.9862 161.302C13.2604 160.822 13.0936 160.211 12.6137 159.936L11.6208 161.674ZM19.9096 163.904C19.4186 163.65 18.8148 163.842 18.561 164.333C18.3071 164.824 18.4993 165.428 18.9903 165.682L19.9096 163.904ZM42.9577 176.208C43.4766 176.398 44.0516 176.132 44.2421 175.613C44.4327 175.094 44.1665 174.519 43.6477 174.329L42.9577 176.208ZM51.5063 177.045C50.9806 176.874 50.4161 177.162 50.2455 177.688C50.0749 178.213 50.3628 178.778 50.8885 178.949L51.5063 177.045ZM76.2038 185.599C76.7453 185.71 77.2741 185.361 77.3849 184.819C77.4957 184.278 77.1465 183.749 76.605 183.638L76.2038 185.599ZM84.7784 185.167C84.2335 185.074 83.7168 185.441 83.6242 185.986C83.5317 186.531 83.8985 187.048 84.4434 187.14L84.7784 185.167ZM110.433 190.226C110.984 190.264 111.462 189.848 111.501 189.297C111.539 188.746 111.124 188.267 110.572 188.229L110.433 190.226ZM118.872 188.685C118.32 188.663 117.854 189.092 117.832 189.645C117.81 190.197 118.239 190.663 118.792 190.685L118.872 188.685ZM144.964 190.577C145.516 190.55 145.943 190.082 145.917 189.53C145.89 188.978 145.422 188.551 144.87 188.577L144.964 190.577ZM153.162 188.074C152.611 188.115 152.197 188.595 152.238 189.146C152.278 189.697 152.758 190.111 153.31 190.07L153.162 188.074ZM179.303 187.084C179.849 186.999 180.223 186.487 180.138 185.941C180.053 185.395 179.542 185.021 178.996 185.106L179.303 187.084ZM187.216 183.721C186.672 183.82 186.311 184.341 186.41 184.885C186.508 185.429 187.029 185.789 187.573 185.691L187.216 183.721ZM213.097 180.016C213.631 179.874 213.95 179.327 213.809 178.792C213.668 178.258 213.12 177.939 212.586 178.08L213.097 180.016ZM220.607 175.851C220.077 176.005 219.772 176.561 219.927 177.092C220.082 177.622 220.638 177.927 221.168 177.772L220.607 175.851ZM245.964 169.386C246.48 169.186 246.736 168.606 246.536 168.091C246.336 167.575 245.756 167.319 245.241 167.519L245.964 169.386ZM252.962 164.392C252.453 164.607 252.215 165.194 252.43 165.703C252.645 166.212 253.233 166.45 253.742 166.235L252.962 164.392ZM277.289 154.752C277.77 154.481 277.941 153.87 277.67 153.389C277.398 152.907 276.788 152.737 276.306 153.008L277.289 154.752ZM283.444 148.773C282.976 149.066 282.834 149.683 283.127 150.152C283.42 150.621 284.038 150.763 284.506 150.47L283.444 148.773ZM305.273 134.461C305.665 134.071 305.666 133.437 305.277 133.045C304.887 132.654 304.253 132.652 303.861 133.042L305.273 134.461ZM309.332 126.887C308.995 127.325 309.077 127.953 309.515 128.29C309.953 128.627 310.581 128.546 310.918 128.108L309.332 126.887ZM316.136 102.966C315.886 102.472 315.284 102.275 314.791 102.524C314.298 102.774 314.1 103.376 314.35 103.869L316.136 102.966ZM309.402 97.7741C309.822 98.1341 310.454 98.0859 310.814 97.6665C311.174 97.2471 311.125 96.6153 310.706 96.2553L309.402 97.7741ZM286.792 85.1984C286.26 85.048 285.707 85.3572 285.557 85.8891C285.407 86.421 285.716 86.9741 286.248 87.1245L286.792 85.1984ZM278.306 85.2098C278.848 85.318 279.375 84.9663 279.484 84.4243C279.592 83.8823 279.24 83.3551 278.698 83.247L278.306 85.2098ZM252.802 81.5039C252.251 81.5407 251.833 82.0176 251.87 82.5691C251.907 83.1206 252.384 83.5378 252.935 83.5011L252.802 81.5039ZM244.808 84.4073C245.354 84.3215 245.727 83.8093 245.641 83.2632C245.555 82.7172 245.043 82.3441 244.497 82.43L244.808 84.4073ZM219.675 90.1811C219.179 90.4253 218.975 91.0252 219.219 91.5211C219.463 92.0169 220.063 92.221 220.559 91.9768L219.675 90.1811ZM213.483 95.9638C213.948 95.665 214.083 95.0458 213.784 94.5808C213.485 94.1159 212.866 93.9812 212.401 94.2801L213.483 95.9638ZM195.001 113.651C194.833 114.177 195.125 114.74 195.651 114.907C196.178 115.075 196.741 114.784 196.908 114.257L195.001 113.651ZM197.006 121.582C196.778 121.078 196.185 120.855 195.681 121.084C195.178 121.312 194.955 121.905 195.183 122.408L197.006 121.582ZM219.368 130.465C219.919 130.43 220.338 129.954 220.302 129.402C220.267 128.851 219.791 128.432 219.24 128.468L219.368 130.465ZM227.298 127.563C226.752 127.648 226.377 128.159 226.462 128.705C226.546 129.251 227.057 129.626 227.604 129.541L227.298 127.563ZM253.255 122.677C253.765 122.464 254.005 121.877 253.792 121.367C253.579 120.857 252.993 120.617 252.483 120.83L253.255 122.677ZM260.096 117.156C259.613 117.423 259.437 118.032 259.705 118.516C259.972 119 260.581 119.175 261.065 118.908L260.096 117.156ZM281.726 101.66C282.071 101.228 282 100.599 281.568 100.254C281.136 99.9094 280.506 99.9804 280.161 100.413L281.726 101.66ZM284.943 93.4929C284.661 93.9682 284.818 94.5822 285.293 94.8643C285.768 95.1465 286.383 94.9899 286.665 94.5146L284.943 93.4929ZM295.019 68.9139C295.071 68.3635 294.666 67.8759 294.116 67.8247C293.565 67.7734 293.078 68.1781 293.026 68.7284L295.019 68.9139ZM293.199 60.3346C293.227 60.8866 293.698 61.3107 294.25 61.282C294.802 61.2532 295.226 60.7824 295.197 60.2304L293.199 60.3346ZM287.651 34.3773C287.376 33.8976 286.765 33.7314 286.285 34.0059C285.806 34.2805 285.639 34.892 285.914 35.3717L287.651 34.3773ZM281.205 28.4374C281.55 28.8696 282.179 28.9405 282.612 28.5959C283.044 28.2513 283.115 27.6216 282.77 27.1895L281.205 28.4374ZM261.585 10.5788C261.086 10.342 260.489 10.5549 260.252 11.0543C260.016 11.5537 260.228 12.1506 260.728 12.3874L261.585 10.5788ZM252.893 9.27566C253.419 9.44709 253.984 9.16008 254.155 8.63461C254.326 8.10915 254.039 7.5442 253.514 7.37277L252.893 9.27566ZM0.44764 154.79C4.11595 157.223 7.84255 159.516 11.6208 161.674L12.6137 159.936C8.87341 157.8 5.18468 155.53 1.55395 153.122L0.44764 154.79ZM18.9903 165.682C26.8025 169.721 34.8102 173.216 42.9577 176.208L43.6477 174.329C35.5753 171.364 27.6444 167.903 19.9096 163.904L18.9903 165.682ZM50.8885 178.949C59.2214 181.653 67.679 183.855 76.2038 185.599L76.605 183.638C68.1497 181.909 59.7645 179.725 51.5063 177.045L50.8885 178.949ZM84.4434 187.14C93.0764 188.606 101.759 189.62 110.433 190.226L110.572 188.229C101.961 187.627 93.3434 186.621 84.7784 185.167L84.4434 187.14ZM118.792 190.685C127.565 191.037 136.309 190.986 144.964 190.577L144.87 188.577C136.27 188.984 127.584 189.035 118.872 188.685L118.792 190.685ZM153.31 190.07C162.11 189.419 170.796 188.407 179.303 187.084L178.996 185.106C170.54 186.421 161.907 187.427 153.162 188.074L153.31 190.07ZM187.573 185.691C196.324 184.103 204.857 182.192 213.097 180.016L212.586 178.08C204.396 180.244 195.914 182.143 187.216 183.721L187.573 185.691ZM221.168 177.772C229.833 175.242 238.13 172.423 245.964 169.386L245.241 167.519C237.461 170.536 229.218 173.336 220.607 175.851L221.168 177.772ZM253.742 166.235C262.27 162.627 270.164 158.766 277.289 154.752L276.306 153.008C269.254 156.982 261.427 160.81 252.962 164.392L253.742 166.235ZM284.506 150.47C292.825 145.264 299.845 139.86 305.273 134.461L303.861 133.042C298.565 138.31 291.672 143.624 283.444 148.773L284.506 150.47ZM310.918 128.108C317.649 119.368 320.007 110.617 316.136 102.966L314.35 103.869C317.712 110.516 315.858 118.414 309.332 126.887L310.918 128.108ZM310.706 96.2553C307.766 93.7318 303.918 91.4612 299.119 89.4802L298.355 91.3304C303.012 93.2525 306.662 95.4224 309.402 97.7741L310.706 96.2553ZM299.119 89.4802C294.957 87.762 290.843 86.3438 286.792 85.1984L286.248 87.1245C290.223 88.2487 294.264 89.6415 298.355 91.3304L299.119 89.4802ZM278.698 83.247C269.614 81.4337 260.921 80.9627 252.802 81.5039L252.935 83.5011C260.882 82.9714 269.398 83.4317 278.306 85.2098L278.698 83.247ZM244.497 82.43C235.18 83.8942 226.798 86.6731 219.675 90.1811L220.559 91.9768C227.503 88.5575 235.691 85.84 244.808 84.4073L244.497 82.43ZM212.401 94.2801C203.271 100.149 197.042 107.228 195.001 113.651L196.908 114.257C198.75 108.461 204.547 101.708 213.483 95.9638L212.401 94.2801ZM195.183 122.408C196.486 125.282 199.157 127.521 203.156 128.921C207.145 130.318 212.513 130.905 219.368 130.465L219.24 128.468C212.541 128.898 207.465 128.309 203.818 127.032C200.181 125.759 198.024 123.827 197.006 121.582L195.183 122.408ZM227.604 129.541C231.498 128.939 235.769 128.07 240.433 126.904L239.948 124.963C235.335 126.116 231.124 126.972 227.298 127.563L227.604 129.541ZM240.433 126.904C244.994 125.764 249.267 124.343 253.255 122.677L252.483 120.83C248.592 122.456 244.414 123.846 239.948 124.963L240.433 126.904ZM261.065 118.908C269.536 114.226 276.416 108.32 281.726 101.66L280.161 100.413C275.019 106.861 268.343 112.598 260.096 117.156L261.065 118.908ZM286.665 94.5146C291.427 86.492 294.199 77.7307 295.019 68.9139L293.026 68.7284C292.233 77.2528 289.553 85.728 284.943 93.4929L286.665 94.5146ZM295.197 60.2304C294.726 51.1859 292.197 42.3185 287.651 34.3773L285.914 35.3717C290.299 43.0324 292.743 51.5934 293.199 60.3346L295.197 60.2304ZM282.77 27.1895C277.399 20.4538 270.322 14.7215 261.585 10.5788L260.728 12.3874C269.192 16.4009 276.026 21.9427 281.205 28.4374L282.77 27.1895ZM253.514 7.37277C249.411 6.03418 245.015 5.01116 240.331 4.34674L240.05 6.3285C244.624 6.97722 248.905 7.97461 252.893 9.27566L253.514 7.37277Z" fill="white"/>
</svg>
