<svg width="76" height="23" viewBox="0 0 76 23" fill="none" xmlns="http://www.w3.org/2000/svg">
<g opacity="0.1">
<path d="M39.8138 11.4253L30.9963 2.5949L33.5912 0L45.0165 11.4253L33.5912 22.8505L30.9963 20.2427L39.8138 11.4253Z" fill="white"/>
<path d="M24.4117 11.4253L15.5942 2.5949L18.1891 0L29.6144 11.4253L18.1891 22.8505L15.5942 20.2427L24.4117 11.4253Z" fill="white"/>
<path d="M8.83031 11.4253L-4.72869e-05 2.5949L2.60775 0L14.0201 11.4253L2.60775 22.8505L-4.72869e-05 20.2427L8.83031 11.4253Z" fill="white"/>
<path d="M70.7973 11.4253L61.9799 2.5949L64.5748 0L76 11.4253L64.5748 22.8505L61.9799 20.2427L70.7973 11.4253Z" fill="white"/>
<path d="M55.3957 11.4253L46.5783 2.5949L49.1732 0L60.5984 11.4253L49.1732 22.8505L46.5783 20.2427L55.3957 11.4253Z" fill="white"/>
</g>
</svg>
