<svg width="36" height="36" viewBox="0 0 36 36" fill="none" xmlns="http://www.w3.org/2000/svg">
<path d="M34.4183 8.82107C34.4299 8.86421 34.4359 8.90869 34.436 8.95339V15.8998C34.436 15.989 34.4125 16.0765 34.3678 16.1537C34.3231 16.2308 34.2588 16.2948 34.1815 16.3392L28.3512 19.6959V26.3492C28.3512 26.5302 28.255 26.6974 28.098 26.7885L15.9279 33.7945C15.9 33.8103 15.8696 33.8204 15.8392 33.8312C15.8278 33.835 15.8171 33.842 15.805 33.8451C15.72 33.8675 15.6305 33.8675 15.5455 33.8451C15.5315 33.8413 15.5189 33.8337 15.5056 33.8287C15.4777 33.8185 15.4486 33.8097 15.422 33.7945L3.25438 26.7885C3.17709 26.7441 3.11286 26.6801 3.06818 26.603C3.0235 26.5259 2.99994 26.4383 2.99988 26.3492V5.50993C2.99988 5.46435 3.00621 5.42003 3.0176 5.37698C3.0214 5.36242 3.03026 5.34913 3.03533 5.33457C3.04483 5.30797 3.05369 5.28075 3.06762 5.25606C3.07711 5.2396 3.09104 5.2263 3.10244 5.21111C3.117 5.19085 3.13029 5.16996 3.14739 5.15223C3.16195 5.13767 3.18094 5.12691 3.1974 5.11424C3.21576 5.09905 3.23222 5.08259 3.25312 5.07056L9.33788 1.5676C9.41491 1.52327 9.50224 1.49994 9.59112 1.49994C9.68 1.49994 9.76732 1.52327 9.84436 1.5676L15.9285 5.07056H15.9298C15.95 5.08322 15.9671 5.09905 15.9855 5.11361C16.0019 5.12627 16.0203 5.13767 16.0348 5.1516C16.0526 5.16996 16.0652 5.19085 16.0804 5.21111C16.0912 5.2263 16.1058 5.2396 16.1146 5.25606C16.1292 5.28138 16.1374 5.30797 16.1475 5.33457C16.1526 5.34913 16.1615 5.36242 16.1653 5.37762C16.1769 5.42076 16.1829 5.46524 16.183 5.50993V18.5259L21.2529 15.6067V8.95275C21.2529 8.90844 21.2592 8.86348 21.2706 8.82107C21.275 8.80587 21.2833 8.79258 21.2883 8.77802C21.2985 8.75143 21.3073 8.7242 21.3213 8.69951C21.3308 8.68305 21.3447 8.66975 21.3555 8.65456C21.3706 8.6343 21.3833 8.61341 21.401 8.59568C21.4156 8.58112 21.434 8.57036 21.4504 8.5577C21.4694 8.5425 21.4859 8.52604 21.5061 8.51401L27.5915 5.01105C27.6685 4.96666 27.7559 4.94329 27.8448 4.94329C27.9337 4.94329 28.021 4.96666 28.098 5.01105L34.1821 8.51401C34.2037 8.52667 34.2201 8.5425 34.2391 8.55706C34.2549 8.56972 34.2733 8.58112 34.2879 8.59505C34.3056 8.61341 34.3182 8.6343 34.3334 8.65456C34.3448 8.66975 34.3588 8.68305 34.3676 8.69951C34.3822 8.7242 34.3904 8.75143 34.4006 8.77802C34.4062 8.79258 34.4145 8.80587 34.4183 8.82107ZM33.4218 15.6067V9.83023L31.2926 11.0559L28.3512 12.7495V18.5259L33.4224 15.6067H33.4218ZM27.3376 26.056V20.2758L24.4444 21.9282L16.1824 26.6436V32.4782L27.3376 26.056ZM4.01411 6.38678V26.056L15.1681 32.4776V26.6442L9.34104 23.3464L9.33914 23.3451L9.33661 23.3438C9.31698 23.3324 9.30052 23.316 9.28216 23.302C9.26634 23.2894 9.24798 23.2793 9.23405 23.2653L9.23278 23.2634C9.21632 23.2476 9.20492 23.228 9.191 23.2102C9.17833 23.1932 9.16314 23.1786 9.15301 23.1609L9.15238 23.159C9.14098 23.14 9.13402 23.1172 9.12579 23.0957C9.11756 23.0767 9.10679 23.0589 9.10173 23.0387C9.0954 23.0146 9.09413 22.9887 9.0916 22.964C9.08907 22.945 9.084 22.926 9.084 22.907V9.30602L6.14324 7.61184L4.01411 6.38678ZM9.59175 2.59196L4.52249 5.50993L9.59048 8.42791L14.6591 5.5093L9.59048 2.59196H9.59175ZM12.228 20.8026L15.1688 19.1096V6.38678L13.0396 7.61247L10.0982 9.30602V22.0289L12.228 20.8026ZM27.8448 6.03541L22.7761 8.95339L27.8448 11.8714L32.9128 8.95275L27.8448 6.03541ZM27.3376 12.7495L24.3962 11.0559L22.2671 9.83023V15.6067L25.2079 17.2996L27.3376 18.5259V12.7495ZM15.6746 25.7667L23.1091 21.5224L26.8255 19.4015L21.7606 16.4854L15.9291 19.8428L10.6142 22.9026L15.6746 25.7667Z" fill="#FF2D20"/>
</svg>
