<svg width="44" height="44" viewBox="0 0 44 44" fill="none" xmlns="http://www.w3.org/2000/svg">
<path d="M17.8448 5.01339H21.1338C21.3054 5.01339 21.47 4.94521 21.5914 4.82387C21.7127 4.70252 21.7809 4.53794 21.7809 4.36633C21.7809 4.19472 21.7127 4.03013 21.5914 3.90879C21.47 3.78744 21.3054 3.71927 21.1338 3.71927H17.8448C17.6732 3.71927 17.5086 3.78744 17.3873 3.90879C17.2659 4.03013 17.1978 4.19472 17.1978 4.36633C17.1978 4.53794 17.2659 4.70252 17.3873 4.82387C17.5086 4.94521 17.6732 5.01339 17.8448 5.01339ZM14.9117 39.8484H20.7779C20.9496 39.8484 21.1141 39.7803 21.2355 39.6589C21.3568 39.5376 21.425 39.373 21.425 39.2014C21.425 39.0298 21.3568 38.8652 21.2355 38.7438C21.1141 38.6225 20.9496 38.5543 20.7779 38.5543H14.9117C14.7401 38.5543 14.5755 38.6225 14.4542 38.7438C14.3328 38.8652 14.2646 39.0298 14.2646 39.2014C14.2646 39.373 14.3328 39.5376 14.4542 39.6589C14.5755 39.7803 14.7401 39.8484 14.9117 39.8484Z" fill="white"/>
<path d="M6.57089 33.4102C6.7425 33.4102 6.90708 33.342 7.02843 33.2207C7.14977 33.0993 7.21795 32.9348 7.21795 32.7632V7.44116H28.4706V10.7696C28.4706 10.9412 28.5388 11.1058 28.6601 11.2272C28.7815 11.3485 28.946 11.4167 29.1177 11.4167C29.2893 11.4167 29.4538 11.3485 29.5752 11.2272C29.6965 11.1058 29.7647 10.9412 29.7647 10.7696L29.7673 3.86939C29.7673 2.45233 28.6091 1.2941 27.1875 1.2941H8.49912C7.14677 1.2941 5.92383 2.40704 5.92383 3.87133V32.7632C5.92383 32.9348 5.992 33.0993 6.11335 33.2207C6.23469 33.342 6.39928 33.4102 6.57089 33.4102ZM27.1862 2.58822C27.8701 2.58822 28.4712 3.14792 28.4712 3.87133V6.14704H7.21795V3.86939C7.21795 3.1641 7.79642 2.58822 8.50106 2.58822H27.1862Z" fill="white"/>
<path d="M21.8378 17.5974C21.9597 17.7181 22.1246 17.7854 22.2962 17.7846C22.4678 17.7838 22.632 17.7148 22.7527 17.5929L25.4574 14.8636C25.5773 14.7424 25.6446 14.5789 25.6446 14.4084C25.6446 14.2379 25.5773 14.0743 25.4574 13.9532L22.7527 11.2239C22.6307 11.1083 22.4685 11.0446 22.3004 11.0465C22.1323 11.0484 21.9716 11.1156 21.8522 11.2339C21.7328 11.3522 21.6641 11.5123 21.6607 11.6804C21.6573 11.8484 21.7194 12.0112 21.8339 12.1343L24.0863 14.4087L21.8332 16.6825C21.7125 16.8044 21.6452 16.9693 21.646 17.1409C21.6469 17.3125 21.7159 17.4767 21.8378 17.5974ZM13.8511 11.2194C13.7908 11.1594 13.7193 11.112 13.6406 11.0798C13.562 11.0476 13.4777 11.0312 13.3927 11.0316C13.3077 11.032 13.2236 11.0492 13.1453 11.0822C13.0669 11.1152 12.9959 11.1634 12.9362 11.2239L10.2321 13.9532C10.1122 14.0743 10.0449 14.2379 10.0449 14.4084C10.0449 14.5789 10.1122 14.7424 10.2321 14.8636L12.9368 17.5929C12.9959 17.6563 13.0671 17.7073 13.1462 17.7427C13.2253 17.7781 13.3107 17.7973 13.3974 17.799C13.4841 17.8008 13.5702 17.7851 13.6507 17.753C13.7312 17.7208 13.8044 17.6728 13.866 17.6118C13.9276 17.5507 13.9762 17.478 14.0092 17.3978C14.0421 17.3176 14.0585 17.2316 14.0576 17.1449C14.0566 17.0582 14.0382 16.9726 14.0035 16.8932C13.9689 16.8138 13.9186 16.7421 13.8556 16.6825L11.6032 14.4087L13.8556 12.1343C13.9764 12.0124 14.0437 11.8475 14.0428 11.6759C14.042 11.5043 13.973 11.3401 13.8511 11.2194ZM18.8878 9.39076L15.0896 18.9478C15.0582 19.0268 15.0427 19.1112 15.0439 19.1962C15.0451 19.2812 15.063 19.3651 15.0967 19.4431C15.1303 19.5212 15.179 19.5918 15.24 19.6511C15.3009 19.7103 15.373 19.757 15.4519 19.7884C15.5309 19.8198 15.6153 19.8353 15.7003 19.8341C15.7853 19.8328 15.8692 19.8149 15.9473 19.7813C16.0253 19.7476 16.096 19.6989 16.1552 19.638C16.2144 19.577 16.2611 19.505 16.2925 19.426L20.0907 9.86894C20.1541 9.70934 20.1515 9.53109 20.0835 9.3734C20.0155 9.21571 19.8876 9.0915 19.728 9.02809C19.5684 8.96468 19.3902 8.96726 19.2325 9.03528C19.0748 9.10329 18.9506 9.23117 18.8872 9.39076H18.8878ZM29.1211 21.3788C27.2252 21.3788 25.6852 22.9188 25.6852 24.8147C25.6852 26.7287 27.2459 28.2506 29.1211 28.2506C30.9885 28.2506 32.5505 26.7313 32.5505 24.8147C32.5505 22.9188 31.0105 21.3788 29.1211 21.3788ZM29.7681 26.8529V24.3876C29.7681 24.0318 29.4769 23.7406 29.1211 23.7406C28.7587 23.7406 28.474 24.0318 28.474 24.3876V26.8594C27.9876 26.7036 27.5728 26.3793 27.3042 25.9449C27.0357 25.5105 26.931 24.9945 27.009 24.4897C27.087 23.985 27.3426 23.5247 27.7298 23.1916C28.117 22.8586 28.6103 22.6746 29.1211 22.6729C30.2987 22.6729 31.2563 23.6371 31.2563 24.8147C31.2563 25.7724 30.6287 26.5812 29.7681 26.8529Z" fill="white"/>
<path d="M37.5003 22.77L35.9085 22.5888C35.7856 22.2135 35.6303 21.8447 35.4427 21.4888L36.3744 20.1688C36.5621 19.9165 36.5297 19.5606 36.3097 19.3406L34.4527 17.49C34.3409 17.3766 34.1912 17.3086 34.0323 17.299C33.8734 17.2895 33.7166 17.3391 33.5921 17.4382L32.3432 18.4412C31.9874 18.26 31.6185 18.1112 31.2368 17.9947L30.9715 16.3965C30.9455 16.2457 30.8668 16.1089 30.7495 16.0106C30.6323 15.9123 30.4839 15.8587 30.3309 15.8594H27.7103C27.3803 15.8594 27.1021 16.1053 27.0632 16.4353L26.8885 18.0335C26.5068 18.1565 26.1444 18.3118 25.795 18.4929L24.4685 17.5547C24.3447 17.4659 24.1931 17.4242 24.0413 17.4373C23.8894 17.4503 23.7472 17.5172 23.6403 17.6259L21.7897 19.4765C21.5568 19.7094 21.5374 20.0782 21.7444 20.3371L22.7409 21.5924C22.5597 21.9482 22.4109 22.3171 22.2944 22.6988L20.7027 22.9641C20.3921 23.0224 20.1591 23.2876 20.1591 23.6047V26.2253C20.1591 26.5553 20.4115 26.8271 20.735 26.8659L22.3268 27.0471C22.4497 27.4288 22.6115 27.7976 22.7927 28.1471L21.8609 29.4606C21.6797 29.7194 21.7056 30.0688 21.9321 30.2953L23.7827 32.1459C24.0156 32.3788 24.3844 32.3982 24.6432 32.1912L25.8985 31.1947C26.2544 31.3694 26.6168 31.5182 26.9985 31.6347L27.2638 33.2329C27.2885 33.3849 27.3665 33.5232 27.4839 33.6228C27.6013 33.7224 27.7504 33.7769 27.9044 33.7765H28.4738V35.2065H6.57089C6.215 35.2065 5.92383 35.4976 5.92383 35.8535V40.1306C5.92554 40.8131 6.19741 41.4671 6.68 41.9497C7.16259 42.4323 7.81664 42.7042 8.49912 42.7059H27.1862C28.6097 42.7059 29.7679 41.5476 29.7679 40.1306V33.7765H30.525C30.855 33.7765 31.1332 33.5306 31.1721 33.2006L31.3532 31.6024C31.7295 31.4788 32.0952 31.3252 32.4468 31.1429L33.7668 32.0812C34.0256 32.2624 34.375 32.23 34.6015 32.01L36.4456 30.1529C36.6785 29.92 36.6979 29.5512 36.4909 29.2988L35.4944 28.0435C35.6756 27.6812 35.8244 27.3124 35.9409 26.9371L37.5327 26.6653C37.8432 26.6135 38.0762 26.3418 38.0762 26.0312V23.4106C38.0762 23.0806 37.8303 22.8024 37.5003 22.77ZM28.4738 40.1306C28.4738 40.8359 27.8979 41.4118 27.1862 41.4118H8.49912C7.79383 41.4118 7.21795 40.8359 7.21795 40.1306V36.5006H28.4738V40.1306ZM36.7821 25.4812L35.3197 25.7271C35.0609 25.7724 34.8603 25.96 34.7956 26.2188C34.6662 26.7624 34.4527 27.2865 34.1679 27.7847C34.0321 28.0112 34.0515 28.3024 34.2197 28.5094L35.1191 29.6482L34.0709 30.7094L32.8544 29.8424C32.7507 29.7699 32.628 29.7294 32.5014 29.7259C32.3749 29.7225 32.2502 29.7562 32.1427 29.8229C31.6703 30.1141 31.1527 30.3341 30.6027 30.47C30.3374 30.5347 30.1432 30.7612 30.1109 31.0265L29.9491 32.4824H28.4479L28.2021 31.0135C28.1818 30.8888 28.1249 30.7729 28.0384 30.6807C27.952 30.5884 27.84 30.5241 27.7168 30.4959C27.1732 30.36 26.6491 30.1465 26.1638 29.8618C26.0512 29.795 25.9208 29.7642 25.7902 29.7734C25.6595 29.7827 25.5348 29.8316 25.4327 29.9135L24.2874 30.8194L23.2327 29.7647L24.0868 28.5676C24.2246 28.3729 24.2485 28.0849 24.1127 27.8429C23.8215 27.3706 23.595 26.8465 23.4527 26.29C23.4214 26.1633 23.3518 26.0493 23.2534 25.9636C23.1549 25.8779 23.0325 25.8247 22.9027 25.8112L21.4532 25.6429V24.1547L22.9156 23.9088C23.1744 23.8635 23.3815 23.6694 23.4397 23.4171C23.5691 22.8671 23.7827 22.3429 24.0738 21.8641C24.2097 21.6312 24.1968 21.34 24.0285 21.1265L23.1162 19.9812L24.1709 18.9265L25.3809 19.7871C25.484 19.8605 25.6064 19.9021 25.7329 19.9067C25.8594 19.9113 25.9845 19.8787 26.0927 19.8129C26.565 19.5218 27.0891 19.3018 27.6456 19.1594C27.9044 19.0947 28.0921 18.8747 28.1244 18.6094L28.2862 17.1535H29.7874L30.0332 18.6159C30.0785 18.8747 30.2662 19.0818 30.5185 19.14C31.0685 19.2694 31.5927 19.4829 32.0779 19.7741C32.3109 19.91 32.6021 19.8906 32.8091 19.7224L33.9479 18.81L35.0027 19.8712L34.1485 21.0747C34.0127 21.2669 33.9848 21.5477 34.1227 21.7929C34.4203 22.2782 34.6403 22.8024 34.7762 23.3394C34.8409 23.5982 35.0609 23.7924 35.3327 23.8247L36.7821 23.9865V25.4812Z" fill="white"/>
</svg>
