<svg width="160" height="28" viewBox="0 0 160 28" fill="none" xmlns="http://www.w3.org/2000/svg">
<path d="M13.9891 3.49731L17.5913 10.4036L25.6466 11.5179L19.8179 16.8907L21.1934 24.4809L13.9891 20.8954L6.78472 24.4809L8.16031 16.8907L2.33154 11.5179L10.3869 10.4036L13.9891 3.49731Z" fill="#FDC639"/>
<path d="M46.8074 3.49731L50.4096 10.4036L58.465 11.5179L52.6362 16.8907L54.0118 24.4809L46.8074 20.8954L39.6031 24.4809L40.9787 16.8907L35.1499 11.5179L43.2053 10.4036L46.8074 3.49731Z" fill="#FDC639"/>
<path d="M79.6243 3.49731L83.2265 10.4036L91.2819 11.5179L85.4531 16.8907L86.8287 24.4809L79.6243 20.8954L72.42 24.4809L73.7956 16.8907L67.9668 11.5179L76.0222 10.4036L79.6243 3.49731Z" fill="#FDC639"/>
<path d="M112.443 3.49731L116.045 10.4036L124.1 11.5179L118.271 16.8907L119.647 24.4809L112.443 20.8954L105.238 24.4809L106.614 16.8907L100.785 11.5179L108.841 10.4036L112.443 3.49731Z" fill="#FDC639"/>
<path d="M145.26 3.49731L148.862 10.4036L156.917 11.5179L151.088 16.8907L152.464 24.4809L145.26 20.8954L138.055 24.4809L139.431 16.8907L133.602 11.5179L141.657 10.4036L145.26 3.49731Z" fill="#FDC639"/>
</svg>
