<svg width="48" height="84" viewBox="0 0 48 84" fill="none" xmlns="http://www.w3.org/2000/svg">
<path opacity="0.1" d="M0.5 66.7805C0.5 66.5043 0.276142 66.2805 0 66.2805V64.1888C0.276142 64.1888 0.5 63.965 0.5 63.6888L0.5 60.5971C0.5 60.321 0.276142 60.0971 0 60.0971V58.0055C0.276143 58.0055 0.5 57.7816 0.5 57.5055V55.9597C0.5 55.5976 0.596953 55.2749 0.759486 55.0031C0.891943 54.7815 0.833064 54.4988 0.631221 54.3471C0.983269 53.9703 1.45279 53.7124 1.96161 53.6164C1.98202 53.8684 2.19006 54.0693 2.4484 54.0753C2.76655 54.0826 3.09348 54.1716 3.40302 54.362L4.99217 55.34C5.22735 55.4847 5.53533 55.4114 5.68005 55.1762L8.00671 56.6081C7.86198 56.8432 7.93531 57.1512 8.17048 57.2959L11.3488 59.2519C11.584 59.3966 11.8919 59.3233 12.0367 59.0881L14.3633 60.5199C14.2186 60.7551 14.2919 61.0631 14.5271 61.2078L17.7054 63.1637C17.9406 63.3084 18.2486 63.2351 18.3933 62.9999L20.7199 64.4318C20.5752 64.6669 20.6485 64.9749 20.8837 65.1196L22.4729 66.0976C23.4085 66.6734 24.5915 66.6734 25.5271 66.0976L27.1163 65.1196C27.3515 64.9749 27.4248 64.6669 27.2801 64.4318L29.6067 62.9999C29.7514 63.2351 30.0594 63.3084 30.2946 63.1637L33.4729 61.2078C33.7081 61.0631 33.7814 60.7551 33.6367 60.5199L35.9633 59.0881C36.1081 59.3233 36.416 59.3966 36.6512 59.2519L39.8295 57.2959C40.0647 57.1512 40.138 56.8432 39.9933 56.6081L42.32 55.1762C42.4647 55.4114 42.7727 55.4847 43.0078 55.34L44.597 54.362C44.9065 54.1716 45.2335 54.0826 45.5516 54.0753C45.8099 54.0693 46.018 53.8684 46.0384 53.6164C46.5472 53.7124 47.0167 53.9703 47.3688 54.3471C47.1669 54.4988 47.1081 54.7815 47.2405 55.0031C47.403 55.2749 47.5 55.5976 47.5 55.9597V57.5055C47.5 57.7816 47.7239 58.0055 48 58.0055V60.0971C47.7239 60.0971 47.5 60.321 47.5 60.5971V63.6888C47.5 63.9649 47.7239 64.1888 48 64.1888V66.2805C47.7239 66.2805 47.5 66.5043 47.5 66.7805V68.3263C47.5 68.9753 47.1619 69.58 46.603 69.9239L44.803 71.0316C44.5678 71.1764 44.4945 71.4843 44.6392 71.7195L41.8909 73.4108C41.7462 73.1757 41.4382 73.1023 41.203 73.2471L37.603 75.4625C37.3678 75.6072 37.2945 75.9152 37.4392 76.1504L34.6909 77.8417C34.5462 77.6065 34.2382 77.5332 34.003 77.6779L30.403 79.8934C30.1678 80.0381 30.0945 80.3461 30.2392 80.5813L27.4909 82.2726C27.3462 82.0374 27.0382 81.9641 26.803 82.1088L25.003 83.2165C24.3888 83.5945 23.6112 83.5945 22.997 83.2165L21.197 82.1088C20.9618 81.9641 20.6538 82.0374 20.5091 82.2726L17.7608 80.5813C17.9055 80.3461 17.8322 80.0381 17.597 79.8934L13.997 77.6779C13.7618 77.5332 13.4538 77.6065 13.3091 77.8417L10.5608 76.1504C10.7055 75.9152 10.6322 75.6072 10.397 75.4625L6.79698 73.2471C6.5618 73.1023 6.25383 73.1757 6.1091 73.4108L3.36076 71.7195C3.50548 71.4843 3.43216 71.1764 3.19698 71.0316L1.39698 69.9239C0.838143 69.58 0.5 68.9753 0.5 68.3263V66.7805ZM3.40302 0.787263L3.66507 0.361437L3.40302 0.787263L4.99217 1.76523C5.22735 1.90995 5.53533 1.83663 5.68005 1.60145L8.00671 3.03327C7.86198 3.26845 7.93531 3.57643 8.17048 3.72115L11.3488 5.67708C11.584 5.82181 11.8919 5.74849 12.0367 5.51331L14.3633 6.94513C14.2186 7.18031 14.2919 7.48828 14.5271 7.63301L17.7054 9.58894C17.9406 9.73366 18.2486 9.66034 18.3933 9.42516L20.7199 10.857C20.5752 11.0922 20.6485 11.4001 20.8837 11.5449L22.4729 12.5228C23.4085 13.0986 24.5915 13.0986 25.5271 12.5228L27.1163 11.5449C27.3515 11.4001 27.4248 11.0922 27.2801 10.857L29.6067 9.42516C29.7514 9.66034 30.0594 9.73366 30.2946 9.58893L33.4729 7.63301C33.7081 7.48828 33.7814 7.18031 33.6367 6.94513L35.9633 5.51331C36.1081 5.74849 36.416 5.82181 36.6512 5.67708L39.8295 3.72115C40.0647 3.57643 40.138 3.26845 39.9933 3.03327L42.32 1.60145C42.4647 1.83663 42.7727 1.90996 43.0078 1.76523L44.597 0.787264C44.9065 0.596773 45.2335 0.507859 45.5516 0.5005C45.8099 0.494524 46.018 0.293622 46.0384 0.0416124C46.5472 0.13761 47.0167 0.395568 47.3688 0.772322C47.1669 0.924001 47.1081 1.20672 47.2405 1.42827C47.403 1.70014 47.5 2.02279 47.5 2.38488V3.93071C47.5 4.20686 47.7239 4.43071 48 4.43071V6.52237C47.7239 6.52237 47.5 6.74623 47.5 7.02237V10.114C47.5 10.3902 47.7239 10.614 48 10.614V12.7057C47.7239 12.7057 47.5 12.9295 47.5 13.2057V14.7515C47.5 15.4005 47.1619 16.0052 46.603 16.3491L44.803 17.4569C44.5678 17.6016 44.4945 17.9096 44.6392 18.1447L41.8909 19.8361C41.7462 19.6009 41.4382 19.5276 41.203 19.6723L37.603 21.8877C37.3678 22.0325 37.2945 22.3404 37.4392 22.5756L34.6909 24.2669C34.5462 24.0318 34.2382 23.9584 34.003 24.1032L30.403 26.3186C30.1678 26.4633 30.0945 26.7713 30.2392 27.0065L27.4909 28.6978C27.3462 28.4626 27.0382 28.3893 26.803 28.534L25.003 29.6417C24.3888 30.0197 23.6112 30.0197 22.997 29.6417L21.197 28.534C20.9618 28.3893 20.6538 28.4626 20.5091 28.6978L17.7608 27.0065C17.9055 26.7713 17.8322 26.4633 17.597 26.3186L13.997 24.1032C13.7618 23.9584 13.4538 24.0318 13.3091 24.2669L10.5608 22.5756C10.7055 22.3404 10.6322 22.0325 10.397 21.8877L6.79698 19.6723C6.5618 19.5276 6.25383 19.6009 6.1091 19.8361L3.36075 18.1447C3.50548 17.9096 3.43216 17.6016 3.19698 17.4569L1.39698 16.3491C0.838143 16.0052 0.500001 15.4005 0.500001 14.7515V13.2057C0.500001 12.9295 0.276143 12.7057 0 12.7057V10.614C0.276143 10.614 0.500001 10.3902 0.500001 10.114V7.02237C0.500001 6.74623 0.276143 6.52237 0 6.52237V4.43072C0.276143 4.43072 0.500001 4.20686 0.500001 3.93072V2.38489C0.500001 2.0228 0.596954 1.70014 0.759487 1.42828C0.891945 1.20672 0.833064 0.924 0.631219 0.772323C0.983265 0.395572 1.45279 0.137612 1.96161 0.0416135C1.98202 0.293623 2.19006 0.494524 2.4484 0.5005C2.76655 0.507858 3.09348 0.596773 3.40302 0.787263ZM0.5 39.9931C0.5 39.7169 0.276143 39.4931 0 39.4931V37.4014C0.276143 37.4014 0.5 37.1776 0.5 36.9014L0.5 33.8098C0.5 33.5336 0.276143 33.3098 0 33.3098V31.2181C0.276143 31.2181 0.5 30.9942 0.5 30.7181V29.1723C0.5 28.8102 0.596953 28.4875 0.759486 28.2157C0.891944 27.9941 0.833064 27.7114 0.631221 27.5597C0.98327 27.183 1.45279 26.925 1.96161 26.829C1.98202 27.081 2.19006 27.2819 2.4484 27.2879C2.76655 27.2952 3.09348 27.3842 3.40302 27.5747L4.99217 28.5526C5.22735 28.6973 5.53533 28.624 5.68005 28.3888L8.00671 29.8207C7.86198 30.0558 7.93531 30.3638 8.17048 30.5085L11.3488 32.4645C11.584 32.6092 11.8919 32.5359 12.0367 32.3007L14.3633 33.7325C14.2186 33.9677 14.2919 34.2757 14.5271 34.4204L17.7054 36.3763C17.9406 36.5211 18.2486 36.4477 18.3933 36.2126L20.7199 37.6444C20.5752 37.8796 20.6485 38.1875 20.8837 38.3323L22.4729 39.3102C23.4085 39.886 24.5915 39.886 25.5271 39.3102L27.1163 38.3323C27.3515 38.1875 27.4248 37.8795 27.2801 37.6444L29.6067 36.2126C29.7514 36.4477 30.0594 36.5211 30.2946 36.3763L33.4729 34.4204C33.7081 34.2757 33.7814 33.9677 33.6367 33.7325L35.9633 32.3007C36.1081 32.5359 36.416 32.6092 36.6512 32.4645L39.8295 30.5085C40.0647 30.3638 40.138 30.0558 39.9933 29.8207L42.32 28.3888C42.4647 28.624 42.7727 28.6973 43.0078 28.5526L44.597 27.5747C44.9065 27.3842 45.2335 27.2952 45.5516 27.2879C45.8099 27.2819 46.018 27.081 46.0384 26.829C46.5472 26.925 47.0167 27.183 47.3688 27.5597C47.1669 27.7114 47.1081 27.9941 47.2405 28.2157C47.403 28.4875 47.5 28.8102 47.5 29.1723V30.7181C47.5 30.9942 47.7239 31.2181 48 31.2181V33.3098C47.7239 33.3098 47.5 33.5336 47.5 33.8098V36.9014C47.5 37.1776 47.7239 37.4014 48 37.4014V39.4931C47.7239 39.4931 47.5 39.7169 47.5 39.9931V41.5389C47.5 42.1879 47.1619 42.7926 46.603 43.1365L44.803 44.2442C44.5678 44.389 44.4945 44.6969 44.6392 44.9321L41.8909 46.6235C41.7462 46.3883 41.4382 46.315 41.203 46.4597L37.603 48.6751C37.3678 48.8198 37.2945 49.1278 37.4392 49.363L34.6909 51.0543C34.5462 50.8191 34.2382 50.7458 34.003 50.8905L30.403 53.106C30.1678 53.2507 30.0945 53.5587 30.2392 53.7939L27.4909 55.4852C27.3462 55.25 27.0382 55.1767 26.803 55.3214L25.003 56.4291C24.3888 56.8071 23.6112 56.8071 22.997 56.4291L21.197 55.3214C20.9618 55.1767 20.6538 55.25 20.5091 55.4852L17.7608 53.7939C17.9055 53.5587 17.8322 53.2507 17.597 53.106L13.997 50.8905C13.7618 50.7458 13.4538 50.8191 13.3091 51.0543L10.5608 49.363C10.7055 49.1278 10.6322 48.8198 10.397 48.6751L6.79698 46.4597C6.5618 46.315 6.25383 46.3883 6.1091 46.6235L3.36075 44.9321C3.50548 44.6969 3.43216 44.389 3.19698 44.2442L1.39698 43.1365C0.838143 42.7926 0.5 42.1879 0.5 41.5389L0.5 39.9931Z" stroke="white" stroke-linecap="round" stroke-dasharray="4 4"/>
</svg>
