<svg width="1440" height="760" viewBox="0 0 1440 760" fill="none" xmlns="http://www.w3.org/2000/svg">
<mask id="mask0_2413_1587" style="mask-type:alpha" maskUnits="userSpaceOnUse" x="0" y="0" width="1440" height="760">
<rect width="1440" height="760" fill="#0B1121"/>
</mask>
<g mask="url(#mask0_2413_1587)">
<path opacity="0.2" d="M-137.747 91.1611V161.465L-198.979 126.103V197.619L-137.058 233.366V162.257L-76.4796 127.308V268.315L-15.2884 303.705V374.773L46.2884 339.225L107.177 374.374V444.285L45.9097 408.93V480.439L107.177 515.787V516.187L107.521 515.987L107.865 516.187V515.787L168.926 480.535L169.098 480.439V410.121L229.677 445.077V516.187L291.425 480.535L291.598 480.439V339.425L352.142 374.374V585.706L291.577 550.736V550.344L291.233 550.544L290.888 550.344V550.736L229.828 585.988L229.656 586.091V657.593L290.888 622.238V763.246L352.121 798.601V799L352.465 798.8L352.809 799V798.601L413.863 763.349L414.035 763.246V692.941L474.614 727.897V728.297L474.958 728.097L475.302 728.297V727.897L536.363 692.646L536.535 692.549V622.238L597.079 657.194V728.297L658.828 692.646L659 692.549V621.047L597.733 656.409V586.491L658.793 551.239L658.966 551.136V479.641L597.699 514.989V444.678L536.466 409.33V339.425L597.699 374.773V303.705L658.759 268.453L658.931 268.35V196.82L597.224 232.471L597.051 232.568V302.872L536.487 267.909V127.308L597.719 162.656V91.1611L536.487 55.806V-86L474.738 -50.3489L474.566 -50.2525V20.0929L413.987 -14.863V-15.2622L413.643 -15.0626L413.299 -15.2622V-14.863L352.796 20.0929V-50.2525L291.577 -85.6007V-86L291.233 -85.8004L290.888 -86V-85.6007L229.828 -50.3489L229.656 -50.2525V90.7618L169.077 55.806V-86L107.5 -50.4521L46.4398 -85.704L45.9235 -86V-14.8974L-15.137 20.3614L-15.3091 20.4577V90.7618L-75.8464 55.806V-86L-137.423 -50.4521L-198.484 -85.704L-199 -86V-14.505L-137.767 20.857V91.1611H-137.747ZM-137.058 90.7618V20.857L-81.7115 -11.1044L-76.5141 -14.1058V55.806L-121.831 81.9643L-137.058 90.7618ZM-137.747 232.169L-198.291 197.22V127.308L-137.747 162.257V232.169ZM-137.058 91.5535L-91.7482 65.3951L-76.5141 56.5769V126.509L-137.093 161.465L-137.058 91.5535ZM-75.7912 127.308L-45.5019 144.779L-15.2126 162.257V232.169L-45.5019 214.697L-75.7912 197.22V127.308ZM-14.5656 91.5535L46.4949 56.3085L46.667 56.2052V-14.1058L107.246 20.857V161.465L45.9786 126.11V267.909L-14.5656 302.865V91.5328V91.5535ZM168.409 -14.1058V55.806L122.79 82.1502L107.865 90.7618V20.857L164.403 -11.7928L168.409 -14.1058ZM230.365 91.5535L291.253 56.4048L352.142 91.5535V91.9527L352.486 91.7531L352.83 91.9527V91.5535L413.718 56.4048L474.6 91.5535V232.169L414.021 197.22V196.82L413.677 197.02L413.333 196.82V197.22L352.279 232.471L352.107 232.568V302.872L291.577 267.909V196.82L229.828 232.471L229.656 232.568V373.582L169.077 338.626V338.234L168.733 338.427L168.389 338.234V338.626L107.845 373.582V303.705L168.905 268.453L169.077 268.35V127.308L230.344 162.656L230.365 91.5535ZM352.142 20.857V90.7618L291.577 55.806V-14.1058L321.866 3.37218L352.142 20.857ZM531.812 -11.7928L535.819 -14.1058V55.806L490.199 82.1502L475.275 90.7618V20.857L531.812 -11.7928ZM490.467 152.73L475.275 161.5V91.5535L520.901 65.2161L535.798 56.5769V126.509L490.467 152.73ZM535.819 198.046V267.909L490.199 294.253L475.275 302.865V232.967L520.633 206.809L535.819 198.046ZM490.467 364.847L475.275 373.617V303.705L520.901 277.361L535.819 268.749V338.626L490.467 364.847ZM474.931 445.311L475.275 445.511V445.112L535.819 410.156V550.736L474.931 585.892L414.042 550.736V410.121L474.621 445.077V445.511L474.931 445.311ZM597.051 515.822V585.692L566.762 568.214L536.473 550.736V480.831L566.762 498.309L597.051 515.822ZM479.26 654.089L475.254 656.402V586.491L535.798 551.521V621.426L479.26 654.089ZM368.278 718.164L352.796 727.113V657.194L413.333 622.238V692.15L368.278 718.164ZM413.333 621.047V621.447L352.796 656.409V586.491L413.333 551.521V621.047ZM414.021 621.447V551.521L474.6 586.477V656.389L444.311 638.911L414.021 621.447ZM474.6 444.292L414.021 409.336V339.425L474.6 374.374V444.285V444.292ZM413.712 338.434L413.367 338.241V338.633L352.83 373.589V303.705L413.718 268.549L474.566 303.705V373.582L413.987 338.626V338.234L413.712 338.434ZM413.367 267.93L352.83 302.879V232.967L413.367 198.011V267.93ZM474.634 233.373V302.899L414.056 267.95V198.011L474.634 232.967V233.373ZM245.585 364.853L230.31 373.582V303.705L275.93 277.361L290.888 268.715V338.626L245.585 364.853ZM230.399 302.899V232.967L290.888 198.011V267.909L245.262 294.253L230.399 302.899ZM46.6326 267.909V198.011L76.9219 215.489L107.211 232.967V302.872L76.9219 285.394L46.6326 267.909ZM168.409 127.301V197.22L123.058 223.378L107.865 232.141V162.257L153.223 136.098L168.409 127.301ZM168.409 198.004V267.909L107.865 302.858V232.967L153.223 206.809L168.409 198.004ZM107.177 162.649V232.175L76.8874 214.704L46.5981 197.226V127.308L107.177 162.257V162.649ZM123.058 152.688L107.865 161.458V91.5535L153.485 65.2161L168.409 56.5769V126.509L123.058 152.688ZM-75.8257 198.004L-45.5364 215.482L-15.2471 232.96V302.872L-75.8257 267.909V198.004ZM-14.6 304.056V303.705L45.9442 268.749V338.626L-14.6 373.582V304.056ZM46.6326 268.708L76.9219 286.186L107.211 303.664V373.582L46.6326 338.626V268.708ZM107.9 374.367L168.444 339.418V409.33L122.824 435.667L107.9 444.285V374.374V374.367ZM46.6326 480.033V410.121L107.211 445.077V514.989L46.6326 480.033ZM168.409 480.033L107.865 514.982V445.077L153.485 418.74L168.409 410.121V480.033ZM169.098 408.923V339.397L229.677 374.346V444.285L169.098 409.33V408.923ZM290.888 480.04L230.31 514.989V445.077L275.93 418.74L290.888 410.121V480.04ZM245.248 435.667L230.31 444.285V374.374L275.661 348.215L290.888 339.425V409.33L245.248 435.667ZM291.577 338.234V268.708L352.107 303.705V373.582L291.577 338.626V338.234ZM352.809 374.374L413.347 339.425V409.33L368.037 435.488L352.809 444.285V374.374ZM398.12 418.919L413.347 410.121V480.04L368.278 506.088L352.796 515.037V445.077L398.12 418.919ZM397.865 489.773L413.347 480.825V550.736L352.809 585.692V515.787L397.865 489.773ZM230.31 656.402V586.491L290.888 551.521V621.426L230.31 656.402ZM291.577 762.853V551.521L352.121 586.477V797.809L291.577 762.853ZM413.347 762.853L352.809 797.802V727.897L397.865 701.884L413.347 692.935V762.853ZM414.035 692.15V622.238L444.324 639.716L474.614 657.194V727.106L414.035 692.15ZM535.812 692.15L475.268 727.106V657.194L531.806 624.551L535.812 622.238V692.15ZM536.5 621.04V551.521L566.79 568.999L597.079 586.477V656.389L536.535 621.426L536.5 621.04ZM658.277 622.238V692.15L597.699 727.106V657.194L658.277 622.238ZM658.277 550.736L597.699 585.692V515.787L658.277 480.831V550.736ZM597.01 514.989L566.721 497.518L536.432 480.04V410.121L596.976 445.077L597.01 514.989ZM535.778 409.33L475.233 444.285V374.374L520.592 348.215L535.778 339.445V409.33ZM597.699 232.967L658.277 198.011V267.909L597.699 302.858V232.967ZM597.01 304.063V373.589L536.466 338.633V268.715L597.031 303.705L597.01 304.063ZM490.447 223.405L475.254 232.169V162.257L520.612 136.098L535.798 127.335V197.22L490.447 223.405ZM597.031 161.451L536.487 126.496V56.5769L597.031 91.5259V161.451ZM475.254 -49.8808L535.798 -84.8366V-14.8974L479.26 17.7455L475.254 20.0585V-49.8808ZM474.566 20.8295V90.7618L413.987 55.806V-14.1058L474.566 20.8295ZM413.299 55.7784L352.761 90.7343V20.857L413.299 -14.1058V55.7784ZM352.107 -49.8532V20.0929L321.818 2.61495L291.529 -14.863V-84.8091L352.107 -49.8532ZM230.33 -49.8532L290.888 -84.8091V-14.8974L234.351 17.7455L230.31 20.0929L230.33 -49.8532ZM286.868 -11.7928L290.875 -14.1058V55.806L230.31 90.7618V20.857L286.868 -11.7928ZM229.621 91.9527V161.479L169.043 126.523V56.5769L229.621 91.5259V91.9527ZM168.354 -14.8974L111.906 17.7455L107.9 20.0585V-49.8532L168.444 -84.8091L168.354 -14.8974ZM46.6326 -84.8091L107.211 -49.8532V20.0929L46.6326 -14.863V-84.8091ZM-14.6 20.857L45.9442 -14.1058V55.806L-14.6 90.7618V20.857ZM-15.2884 91.9527V161.479L-45.5777 144.001L-75.867 126.523V56.5769L-15.3297 91.5259L-15.2884 91.9527ZM-76.5141 -14.8974L-131.868 17.064L-137.058 20.0585V-49.8532L-76.4796 -84.8091L-76.5141 -14.8974ZM-198.291 -84.8091L-137.747 -49.8532V20.0929L-198.291 -14.863V-84.8091Z" fill="#898989"/>
<path opacity="0.3" d="M1446.34 724.247L1376.03 724.247L1411.4 785.479L1339.88 785.479L1304.13 723.558L1375.24 723.558L1410.19 662.98L1269.18 662.98L1233.8 601.788L1162.73 601.788L1198.27 540.212L1163.13 479.323L1093.21 479.323L1128.57 540.59L1057.06 540.59L1021.71 479.323L1021.31 479.323L1021.51 478.979L1021.31 478.635L1021.71 478.635L1056.96 417.574L1057.06 417.402L1127.38 417.402L1092.42 356.824L1021.31 356.824L1056.96 295.075L1057.06 294.903L1198.08 294.903L1163.13 234.358L951.794 234.358L986.764 294.923L987.156 294.923L986.956 295.267L987.156 295.612L986.764 295.612L951.512 356.672L951.409 356.844L879.907 356.844L915.262 295.612L774.254 295.612L738.899 234.379L738.5 234.379L738.7 234.035L738.5 233.691L738.899 233.691L774.151 172.637L774.254 172.465L844.559 172.465L809.603 111.886L809.203 111.886L809.403 111.542L809.203 111.198L809.603 111.198L844.854 50.1373L844.951 49.9652L915.262 49.9652L880.306 -10.579L809.203 -10.579L844.854 -72.3278L844.951 -72.5L916.453 -72.5L881.091 -11.2329L951.009 -11.2329L986.261 -72.2934L986.364 -72.4655L1057.86 -72.4656L1022.51 -11.1985L1092.82 -11.1985L1128.17 50.0341L1198.08 50.0341L1162.73 -11.1985L1233.8 -11.1985L1269.05 -72.259L1269.15 -72.4311L1340.68 -72.4311L1305.03 -10.7236L1304.93 -10.5514L1234.63 -10.5514L1269.59 50.0134L1410.19 50.0134L1374.84 -11.2192L1446.34 -11.2192L1481.69 50.0134L1623.5 50.0134L1587.85 111.762L1587.75 111.934L1517.41 111.934L1552.36 172.513L1552.76 172.513L1552.56 172.857L1552.76 173.201L1552.36 173.201L1517.41 233.704L1587.75 233.704L1623.1 294.923L1623.5 294.923L1623.3 295.267L1623.5 295.612L1623.1 295.612L1587.85 356.672L1587.75 356.844L1446.74 356.844L1481.69 417.423L1623.5 417.423L1587.95 479L1623.2 540.06L1623.5 540.577L1552.4 540.577L1517.14 601.637L1517.04 601.809L1446.74 601.809L1481.69 662.346L1623.5 662.346L1587.95 723.923L1623.2 784.984L1623.5 785.5L1552.01 785.5L1516.64 724.267L1446.34 724.267L1446.34 724.247ZM1446.74 723.558L1516.64 723.558L1548.6 668.211L1551.61 663.014L1481.69 663.014L1455.54 708.331L1446.74 723.558ZM1305.33 724.247L1340.28 784.791L1410.19 784.791L1375.24 724.247L1305.33 724.247ZM1445.95 723.558L1472.1 678.248L1480.92 663.014L1410.99 663.014L1376.03 723.593L1445.95 723.558ZM1410.19 662.291L1392.72 632.002L1375.24 601.713L1305.33 601.713L1322.8 632.002L1340.28 662.291L1410.19 662.291ZM1445.95 601.066L1481.19 540.005L1481.29 539.833L1551.61 539.833L1516.64 479.254L1376.03 479.254L1411.39 540.521L1269.59 540.521L1234.64 601.066L1445.97 601.066L1445.95 601.066ZM1551.61 418.091L1481.69 418.091L1455.35 463.71L1446.74 478.635L1516.64 478.635L1549.29 422.097L1551.61 418.091ZM1445.95 356.135L1481.1 295.247L1445.95 234.358L1445.55 234.358L1445.75 234.014L1445.55 233.67L1445.95 233.67L1481.1 172.782L1445.95 111.9L1305.33 111.9L1340.28 172.479L1340.68 172.479L1340.48 172.823L1340.68 173.167L1340.28 173.167L1305.03 234.221L1304.93 234.393L1234.63 234.393L1269.59 294.923L1340.68 294.923L1305.03 356.672L1304.93 356.844L1163.92 356.844L1198.87 417.423L1199.27 417.423L1199.07 417.767L1199.27 418.111L1198.87 418.111L1163.92 478.655L1233.8 478.655L1269.05 417.595L1269.15 417.423L1410.19 417.423L1374.84 356.156L1445.95 356.135ZM1516.64 234.358L1446.74 234.358L1481.69 294.923L1551.61 294.923L1534.13 264.634L1516.64 234.358ZM1549.29 54.6876L1551.61 50.6811L1481.69 50.6811L1455.35 96.301L1446.74 111.225L1516.64 111.225L1549.29 54.6876ZM1384.77 96.0325L1376 111.225L1445.95 111.225L1472.28 65.5987L1480.92 50.7018L1410.99 50.7018L1384.77 96.0325ZM1339.45 50.6811L1269.59 50.6811L1243.25 96.301L1234.63 111.225L1304.53 111.225L1330.69 65.8671L1339.45 50.6811ZM1172.65 96.0326L1163.88 111.225L1233.8 111.225L1260.14 65.5987L1268.75 50.6811L1198.87 50.6811L1172.65 96.0326ZM1092.19 111.569L1091.99 111.225L1092.39 111.225L1127.34 50.6811L986.764 50.6811L951.608 111.569L986.764 172.458L1127.38 172.458L1092.42 111.879L1091.99 111.879L1092.19 111.569ZM1021.68 -10.5514L951.808 -10.5514L969.286 19.7379L986.764 50.0272L1056.67 50.0272L1039.19 19.7379L1021.68 -10.5514ZM883.411 107.24L881.098 111.246L951.009 111.246L985.979 50.7018L916.074 50.7018L883.411 107.24ZM819.336 218.222L810.387 233.704L880.306 233.704L915.262 173.167L845.35 173.167L819.336 218.222ZM916.453 173.167L916.053 173.167L881.091 233.704L951.009 233.704L985.979 173.167L916.453 173.167ZM916.053 172.479L985.979 172.479L951.023 111.9L881.111 111.9L898.589 142.189L916.053 172.479ZM1093.21 111.9L1128.16 172.479L1198.08 172.479L1163.13 111.9L1093.21 111.9L1093.21 111.9ZM1199.07 172.788L1199.26 173.133L1198.87 173.133L1163.91 233.67L1233.8 233.67L1268.95 172.782L1233.8 111.934L1163.92 111.934L1198.87 172.513L1199.27 172.513L1199.07 172.788ZM1269.57 173.133L1234.62 233.67L1304.53 233.67L1339.49 173.133L1269.57 173.133ZM1304.13 111.866L1234.6 111.866L1269.55 172.444L1339.49 172.444L1304.53 111.866L1304.13 111.866ZM1172.65 340.915L1163.92 356.19L1233.8 356.19L1260.14 310.57L1268.79 295.612L1198.87 295.612L1172.65 340.915ZM1234.6 356.101L1304.53 356.101L1339.49 295.612L1269.59 295.612L1243.25 341.238L1234.6 356.101ZM1269.59 539.867L1339.49 539.867L1322.01 509.578L1304.53 479.289L1234.63 479.289L1252.11 509.578L1269.59 539.867ZM1410.2 418.091L1340.28 418.091L1314.12 463.442L1305.36 478.635L1375.24 478.635L1401.4 433.277L1410.2 418.091ZM1339.5 418.091L1269.59 418.091L1234.64 478.635L1304.53 478.635L1330.69 433.277L1339.5 418.091ZM1374.85 479.323L1305.32 479.323L1322.8 509.613L1340.27 539.902L1410.19 539.902L1375.24 479.323L1374.85 479.323ZM1384.81 463.442L1376.04 478.635L1445.95 478.635L1472.28 433.015L1480.92 418.091L1410.99 418.091L1384.81 463.442ZM1339.5 662.326L1322.02 632.036L1304.54 601.747L1234.63 601.747L1269.59 662.326L1339.5 662.326ZM1233.44 601.1L1233.8 601.1L1268.75 540.556L1198.87 540.556L1163.92 601.1L1233.44 601.1ZM1268.79 539.867L1251.31 509.578L1233.84 479.289L1163.92 479.289L1198.87 539.867L1268.79 539.867ZM1163.13 478.6L1198.08 418.056L1128.17 418.056L1101.83 463.676L1093.21 478.6L1163.13 478.6L1163.13 478.6ZM1057.47 539.867L1127.38 539.867L1092.42 479.289L1022.51 479.289L1057.47 539.867ZM1057.47 418.091L1022.52 478.635L1092.42 478.635L1118.76 433.015L1127.38 418.091L1057.47 418.091ZM1128.58 417.402L1198.1 417.402L1163.15 356.824L1093.21 356.824L1128.17 417.402L1128.58 417.402ZM1057.46 295.612L1022.51 356.19L1092.42 356.19L1118.76 310.57L1127.38 295.612L1057.46 295.612ZM1101.83 341.252L1093.21 356.19L1163.13 356.19L1189.28 310.839L1198.08 295.612L1128.17 295.612L1101.83 341.252ZM1199.27 294.923L1268.79 294.923L1233.8 234.393L1163.92 234.393L1198.87 294.923L1199.27 294.923ZM1163.13 233.691L1198.08 173.153L1128.17 173.153L1102.01 218.463L1093.21 233.691L1163.13 233.691ZM1118.58 188.381L1127.38 173.153L1057.46 173.153L1031.41 218.222L1022.46 233.704L1092.42 233.704L1118.58 188.381ZM1047.73 188.635L1056.68 173.153L986.764 173.153L951.808 233.691L1021.71 233.691L1047.73 188.635ZM881.098 356.19L951.009 356.19L985.979 295.612L916.074 295.612L881.098 356.19ZM774.647 294.923L985.979 294.923L951.023 234.379L739.691 234.379L774.647 294.923ZM774.647 173.153L739.698 233.691L809.603 233.691L835.616 188.635L844.565 173.153L774.647 173.153ZM845.35 172.465L915.262 172.465L897.784 142.176L880.306 111.886L810.394 111.886L845.35 172.465ZM845.35 50.688L810.394 111.232L880.306 111.232L912.949 54.6945L915.262 50.688L845.35 50.688ZM916.46 49.9996L985.979 49.9996L968.501 19.7103L951.023 -10.579L881.111 -10.579L916.074 49.9652L916.46 49.9996ZM915.262 -71.7771L845.35 -71.7771L810.394 -11.1985L880.306 -11.1985L915.262 -71.7771ZM986.764 -71.7771L951.808 -11.1985L1021.71 -11.1985L1056.67 -71.7771L986.764 -71.7771ZM1022.51 -10.5101L1039.98 19.7792L1057.46 50.0685L1127.38 50.0685L1092.42 -10.4757L1022.51 -10.5101ZM1128.17 50.7225L1093.21 111.267L1163.13 111.267L1189.28 65.9085L1198.05 50.7225L1128.17 50.7225ZM1304.53 -11.1985L1339.49 -71.7771L1269.59 -71.7771L1234.64 -11.1985L1304.53 -11.1985ZM1233.44 -10.5101L1163.91 -10.5101L1198.87 50.0341L1268.79 50.0341L1233.8 -10.5308L1233.44 -10.5101ZM1314.09 96.0532L1305.33 111.246L1375.24 111.246L1401.4 65.8878L1410.16 50.7018L1340.28 50.7018L1314.09 96.0532ZM1376.05 -10.5308L1411 50.0134L1480.92 50.0134L1445.97 -10.5308L1376.05 -10.5308ZM1587.38 111.246L1622.34 50.7018L1552.4 50.7018L1519.75 107.24L1517.44 111.246L1587.38 111.246ZM1516.67 111.934L1446.74 111.934L1481.69 172.513L1551.61 172.513L1516.67 111.934ZM1481.72 173.201L1446.77 233.739L1516.64 233.739L1551.61 173.201L1481.72 173.201ZM1587.35 234.393L1517.41 234.393L1534.89 264.682L1552.36 294.971L1622.31 294.971L1587.35 234.393ZM1587.35 356.17L1622.31 295.612L1552.4 295.612L1519.75 352.149L1517.41 356.19L1587.35 356.17ZM1549.29 299.632L1551.61 295.625L1481.69 295.625L1446.74 356.19L1516.64 356.19L1549.29 299.632ZM1445.55 356.879L1376.02 356.879L1410.98 417.457L1480.92 417.457L1445.97 356.879L1445.55 356.879ZM1552.4 418.146L1519.75 474.594L1517.44 478.6L1587.35 478.6L1622.31 418.056L1552.4 418.146ZM1622.31 539.867L1587.35 479.289L1517.41 479.289L1552.36 539.867L1622.31 539.867ZM1516.64 601.1L1551.61 540.556L1481.69 540.556L1446.74 601.1L1516.64 601.1ZM1445.55 601.788L1376.02 601.788L1393.5 632.078L1410.98 662.367L1480.92 662.367L1445.97 601.83L1445.55 601.788ZM1552.4 663.014L1520.44 718.368L1517.44 723.558L1587.35 723.558L1622.31 662.98L1552.4 663.014ZM1622.31 784.791L1587.35 724.247L1517.41 724.247L1552.36 784.791L1622.31 784.791Z" fill="#898989"/>
<g opacity="0.3" filter="url(#filter0_f_2413_1587)">
<circle cx="1421.5" cy="176.5" r="159.5" fill="#FF3B56"/>
</g>
<g opacity="0.2" filter="url(#filter1_f_2413_1587)">
<ellipse cx="48" cy="559.5" rx="186" ry="186.5" fill="#8851F8"/>
</g>
</g>
<defs>
<filter id="filter0_f_2413_1587" x="762" y="-483" width="1319" height="1319" filterUnits="userSpaceOnUse" color-interpolation-filters="sRGB">
<feFlood flood-opacity="0" result="BackgroundImageFix"/>
<feBlend mode="normal" in="SourceGraphic" in2="BackgroundImageFix" result="shape"/>
<feGaussianBlur stdDeviation="250" result="effect1_foregroundBlur_2413_1587"/>
</filter>
<filter id="filter1_f_2413_1587" x="-638" y="-127" width="1372" height="1373" filterUnits="userSpaceOnUse" color-interpolation-filters="sRGB">
<feFlood flood-opacity="0" result="BackgroundImageFix"/>
<feBlend mode="normal" in="SourceGraphic" in2="BackgroundImageFix" result="shape"/>
<feGaussianBlur stdDeviation="250" result="effect1_foregroundBlur_2413_1587"/>
</filter>
</defs>
</svg>
