<svg width="38" height="20" viewBox="0 0 38 20" fill="none" xmlns="http://www.w3.org/2000/svg">
<g clip-path="url(#clip0_2477_950)">
<path d="M18.9999 19.7807C29.4933 19.7807 37.9998 15.3526 37.9998 9.89035C37.9998 4.42806 29.4933 0 18.9999 0C8.50655 0 0 4.42806 0 9.89035C0 15.3526 8.50655 19.7807 18.9999 19.7807Z" fill="#8993BE"/>
<path fill-rule="evenodd" clip-rule="evenodd" d="M5.3357 15.7464L7.41797 5.20526H12.2328C14.3149 5.33544 15.3561 6.37642 15.3561 8.19849C15.3561 11.3217 12.8836 13.1437 10.6711 13.0135H8.32893L7.80836 15.7464H5.3357ZM8.84935 11.0615L9.5001 7.15735H11.1918C12.1028 7.15735 12.7534 7.54774 12.7534 8.32852C12.6234 10.541 11.5822 10.9314 10.4111 11.0615H8.84935ZM14.8723 13.0135L16.9544 2.47253H19.4271L18.9065 5.20526H21.2489C23.3311 5.33544 24.1119 6.37642 23.8517 7.67792L22.9408 13.0135H20.3381L21.249 8.19849C21.3791 7.54774 21.3791 7.15735 20.4682 7.15735H18.5162L17.345 13.0135H14.8723ZM22.7741 15.7464L24.8562 5.20526H29.6712C31.7535 5.33544 32.7946 6.37642 32.7946 8.19849C32.7946 11.3217 30.3219 13.1437 28.1096 13.0135H25.7671L25.2466 15.7464H22.7741ZM26.2876 11.0615L26.9383 7.15735H28.6302C29.5412 7.15735 30.1917 7.54774 30.1917 8.32852C30.0617 10.541 29.0206 10.9314 27.8494 11.0615H26.2877H26.2876Z" fill="#232531"/>
</g>
<defs>
<clipPath id="clip0_2477_950">
<rect width="37.1322" height="19.4424" fill="white" transform="scale(1.02337)"/>
</clipPath>
</defs>
</svg>
