<svg width="67" height="65" viewBox="0 0 67 65" fill="none" xmlns="http://www.w3.org/2000/svg">
<path opacity="0.5" d="M67 26.5604C67 48.2233 51.1181 65 29.6047 65C8.09123 65 0 59.9905 0 38.3276C0 16.6647 8.09123 11.6551 29.6047 11.6551C44.407 12.4399 67 4.89748 67 26.5604Z" fill="#8851F8"/>
<g clip-path="url(#clip0_2417_569)">
<path d="M29 0C18.532 0 10.0156 8.51639 10.0156 18.9844C10.0156 22.5212 10.9953 25.9727 12.8495 28.9672L27.9194 53.2521C28.0613 53.4808 28.2592 53.6696 28.4945 53.8004C28.7297 53.9313 28.9944 54 29.2636 54H29.2761C29.5474 53.9979 29.8136 53.926 30.0491 53.7914C30.2846 53.6567 30.4815 53.4637 30.6208 53.2309L45.3066 28.7107C47.0585 25.7795 47.9844 22.4162 47.9844 18.9844C47.9844 8.51639 39.468 0 29 0ZM42.5913 27.0863L29.2396 49.379L15.5387 27.3002C13.9954 24.8077 13.1586 21.9322 13.1586 18.9844C13.1586 10.2611 20.2767 3.14297 29 3.14297C37.7233 3.14297 44.8309 10.2611 44.8309 18.9844C44.8309 21.8448 44.0492 24.6468 42.5913 27.0863Z" fill="white"/>
<path d="M29 9.49219C23.766 9.49219 19.5078 13.7504 19.5078 18.9844C19.5078 24.1849 23.6967 28.4766 29 28.4766C34.3687 28.4766 38.4922 24.1278 38.4922 18.9844C38.4922 13.7504 34.234 9.49219 29 9.49219ZM29 25.3336C25.4924 25.3336 22.6508 22.4825 22.6508 18.9844C22.6508 15.495 25.5107 12.6352 29 12.6352C32.4893 12.6352 35.3387 15.495 35.3387 18.9844C35.3387 22.4314 32.5632 25.3336 29 25.3336Z" fill="white"/>
</g>
<defs>
<clipPath id="clip0_2417_569">
<rect width="54" height="54" fill="white" transform="translate(2)"/>
</clipPath>
</defs>
</svg>
