<svg width="1170" height="560" viewBox="0 0 1170 560" fill="none" xmlns="http://www.w3.org/2000/svg">
<mask id="mask0_2418_4542" style="mask-type:alpha" maskUnits="userSpaceOnUse" x="0" y="0" width="1170" height="560">
<rect width="1170" height="560" rx="30" fill="#0B1121"/>
</mask>
<g mask="url(#mask0_2418_4542)">
<path opacity="0.15" d="M-373.747 196.161V266.465L-434.979 231.103V302.619L-373.058 338.366V267.257L-312.48 232.308V373.315L-251.288 408.705V479.773L-189.712 444.225L-128.823 479.374V549.285L-190.09 513.93V585.439L-128.823 620.787V621.187L-128.479 620.987L-128.135 621.187V620.787L-67.0742 585.535L-66.9021 585.439V515.121L-6.32349 550.077V621.187L55.4254 585.535L55.5975 585.439V444.425L116.142 479.374V690.706L55.5768 655.736V655.344L55.2326 655.544L54.8884 655.344V655.736L-6.17206 690.988L-6.34415 691.091V762.593L54.8884 727.238V868.246L116.121 903.601V904L116.465 903.8L116.809 904V903.601L177.863 868.349L178.035 868.246V797.941L238.614 832.897V833.297L238.958 833.097L239.302 833.297V832.897L300.363 797.646L300.535 797.549V727.238L361.079 762.194V833.297L422.828 797.646L423 797.549V726.047L361.733 761.409V691.491L422.793 656.239L422.966 656.136V584.641L361.699 619.989V549.678L300.466 514.33V444.425L361.699 479.773V408.705L422.759 373.453L422.931 373.35V301.82L361.224 337.471L361.051 337.568V407.872L300.487 372.909V232.308L361.719 267.656V196.161L300.487 160.806V19L238.738 54.6511L238.566 54.7475V125.093L177.987 90.137V89.7378L177.643 89.9374L177.299 89.7378V90.137L116.796 125.093V54.7475L55.5768 19.3993V19L55.2326 19.1996L54.8884 19V19.3993L-6.17206 54.6511L-6.34415 54.7475V195.762L-66.9228 160.806V19L-128.5 54.5479L-189.56 19.296L-190.077 19V90.1026L-251.137 125.361L-251.309 125.458V195.762L-311.846 160.806V19L-373.423 54.5479L-434.484 19.296L-435 19V90.495L-373.767 125.857V196.161H-373.747ZM-373.058 195.762V125.857L-317.711 93.8956L-312.514 90.8942V160.806L-357.831 186.964L-373.058 195.762ZM-373.747 337.169L-434.291 302.22V232.308L-373.747 267.257V337.169ZM-373.058 196.553L-327.748 170.395L-312.514 161.577V231.509L-373.093 266.465L-373.058 196.553ZM-311.791 232.308L-281.502 249.779L-251.213 267.257V337.169L-281.502 319.697L-311.791 302.22V232.308ZM-250.566 196.553L-189.505 161.308L-189.333 161.205V90.8942L-128.754 125.857V266.465L-190.021 231.11V372.909L-250.566 407.865V196.533V196.553ZM-67.5905 90.8942V160.806L-113.21 187.15L-128.135 195.762V125.857L-71.597 93.2072L-67.5905 90.8942ZM-5.63507 196.553L55.2533 161.405L116.142 196.553V196.953L116.486 196.753L116.83 196.953V196.553L177.718 161.405L238.6 196.553V337.169L178.021 302.22V301.82L177.677 302.02L177.333 301.82V302.22L116.279 337.471L116.107 337.568V407.872L55.5768 372.909V301.82L-6.17206 337.471L-6.34415 337.568V478.582L-66.9228 443.626V443.234L-67.267 443.427L-67.6112 443.234V443.626L-128.155 478.582V408.705L-67.0949 373.453L-66.9228 373.35V232.308L-5.65576 267.656L-5.63507 196.553ZM116.142 125.857V195.762L55.5768 160.806V90.8942L85.8661 108.372L116.142 125.857ZM295.812 93.2072L299.819 90.8942V160.806L254.199 187.15L239.275 195.762V125.857L295.812 93.2072ZM254.467 257.73L239.275 266.5V196.553L284.901 170.216L299.798 161.577V231.509L254.467 257.73ZM299.819 303.046V372.909L254.199 399.253L239.275 407.865V337.967L284.633 311.809L299.819 303.046ZM254.467 469.847L239.275 478.617V408.705L284.901 382.361L299.819 373.749V443.626L254.467 469.847ZM238.931 550.311L239.275 550.511V550.112L299.819 515.156V655.736L238.931 690.892L178.042 655.736V515.121L238.621 550.077V550.511L238.931 550.311ZM361.051 620.822V690.692L330.762 673.214L300.473 655.736V585.831L330.762 603.309L361.051 620.822ZM243.26 759.089L239.254 761.402V691.491L299.798 656.521V726.426L243.26 759.089ZM132.278 823.164L116.796 832.113V762.194L177.333 727.238V797.15L132.278 823.164ZM177.333 726.047V726.447L116.796 761.409V691.491L177.333 656.521V726.047ZM178.021 726.447V656.521L238.6 691.477V761.389L208.311 743.911L178.021 726.447ZM238.6 549.292L178.021 514.336V444.425L238.6 479.374V549.285V549.292ZM177.712 443.434L177.367 443.241V443.633L116.83 478.589V408.705L177.718 373.549L238.566 408.705V478.582L177.987 443.626V443.234L177.712 443.434ZM177.367 372.93L116.83 407.879V337.967L177.367 303.011V372.93ZM238.634 338.373V407.899L178.056 372.95V303.011L238.634 337.967V338.373ZM9.58521 469.853L-5.69022 478.582V408.705L39.9297 382.361L54.8884 373.715V443.626L9.58521 469.853ZM-5.6008 407.899V337.967L54.8884 303.011V372.909L9.26169 399.253L-5.6008 407.899ZM-189.367 372.909V303.011L-159.078 320.489L-128.789 337.967V407.872L-159.078 390.394L-189.367 372.909ZM-67.5905 232.301V302.22L-112.942 328.378L-128.135 337.141V267.257L-82.7765 241.098L-67.5905 232.301ZM-67.5905 303.004V372.909L-128.135 407.858V337.967L-82.7765 311.809L-67.5905 303.004ZM-128.823 267.649V337.175L-159.113 319.704L-189.402 302.226V232.308L-128.823 267.257V267.649ZM-112.942 257.688L-128.135 266.458V196.553L-82.515 170.216L-67.5905 161.577V231.509L-112.942 257.688ZM-311.826 303.004L-281.536 320.482L-251.247 337.96V407.872L-311.826 372.909V303.004ZM-250.6 409.056V408.705L-190.056 373.749V443.626L-250.6 478.582V409.056ZM-189.367 373.708L-159.078 391.186L-128.789 408.664V478.582L-189.367 443.626V373.708ZM-128.1 479.367L-67.5562 444.418V514.33L-113.176 540.667L-128.1 549.285V479.374V479.367ZM-189.367 585.033V515.121L-128.789 550.077V619.989L-189.367 585.033ZM-67.5905 585.033L-128.135 619.982V550.077L-82.515 523.74L-67.5905 515.121V585.033ZM-66.9021 513.923V444.397L-6.32349 479.346V549.285L-66.9021 514.33V513.923ZM54.8884 585.04L-5.69022 619.989V550.077L39.9297 523.74L54.8884 515.121V585.04ZM9.24789 540.667L-5.69022 549.285V479.374L39.6611 453.215L54.8884 444.425V514.33L9.24789 540.667ZM55.5768 443.234V373.708L116.107 408.705V478.582L55.5768 443.626V443.234ZM116.809 479.374L177.347 444.425V514.33L132.037 540.488L116.809 549.285V479.374ZM162.12 523.919L177.347 515.121V585.04L132.278 611.088L116.796 620.037V550.077L162.12 523.919ZM161.865 594.773L177.347 585.825V655.736L116.809 690.692V620.787L161.865 594.773ZM-5.69022 761.402V691.491L54.8884 656.521V726.426L-5.69022 761.402ZM55.5768 867.853V656.521L116.121 691.477V902.809L55.5768 867.853ZM177.347 867.853L116.809 902.802V832.897L161.865 806.884L177.347 797.935V867.853ZM178.035 797.15V727.238L208.324 744.716L238.614 762.194V832.106L178.035 797.15ZM299.812 797.15L239.268 832.106V762.194L295.806 729.551L299.812 727.238V797.15ZM300.5 726.04V656.521L330.79 673.999L361.079 691.477V761.389L300.535 726.426L300.5 726.04ZM422.277 727.238V797.15L361.699 832.106V762.194L422.277 727.238ZM422.277 655.736L361.699 690.692V620.787L422.277 585.831V655.736ZM361.01 619.989L330.721 602.518L300.432 585.04V515.121L360.976 550.077L361.01 619.989ZM299.778 514.33L239.233 549.285V479.374L284.592 453.215L299.778 444.445V514.33ZM361.699 337.967L422.277 303.011V372.909L361.699 407.858V337.967ZM361.01 409.063V478.589L300.466 443.633V373.715L361.031 408.705L361.01 409.063ZM254.447 328.405L239.254 337.169V267.257L284.612 241.098L299.798 232.335V302.22L254.447 328.405ZM361.031 266.451L300.487 231.496V161.577L361.031 196.526V266.451ZM239.254 55.1192L299.798 20.1634V90.1026L243.26 122.746L239.254 125.058V55.1192ZM238.566 125.829V195.762L177.987 160.806V90.8942L238.566 125.829ZM177.299 160.778L116.761 195.734V125.857L177.299 90.8942V160.778ZM116.107 55.1468V125.093L85.8179 107.615L55.5286 90.137V20.1909L116.107 55.1468ZM-5.66953 55.1468L54.8884 20.1909V90.1026L-1.64926 122.746L-5.69022 125.093L-5.66953 55.1468ZM50.8681 93.2072L54.8746 90.8942V160.806L-5.69022 195.762V125.857L50.8681 93.2072ZM-6.3786 196.953V266.479L-66.9572 231.523V161.577L-6.3786 196.526V196.953ZM-67.6456 90.1026L-124.094 122.746L-128.1 125.058V55.1468L-67.5562 20.1909L-67.6456 90.1026ZM-189.367 20.1909L-128.789 55.1468V125.093L-189.367 90.137V20.1909ZM-250.6 125.857L-190.056 90.8942V160.806L-250.6 195.762V125.857ZM-251.288 196.953V266.479L-281.578 249.001L-311.867 231.523V161.577L-251.33 196.526L-251.288 196.953ZM-312.514 90.1026L-367.868 122.064L-373.058 125.058V55.1468L-312.48 20.1909L-312.514 90.1026ZM-434.291 20.1909L-373.747 55.1468V125.093L-434.291 90.137V20.1909Z" fill="#898989"/>
<path opacity="0.05" d="M933.253 196.161V266.465L872.021 231.103V302.619L933.942 338.366V267.257L994.52 232.308V373.315L1055.71 408.705V479.773L1117.29 444.225L1178.18 479.374V549.285L1116.91 513.93V585.439L1178.18 620.787V621.187L1178.52 620.987L1178.87 621.187V620.787L1239.93 585.535L1240.1 585.439V515.121L1300.68 550.077V621.187L1362.43 585.535L1362.6 585.439V444.425L1423.14 479.374V690.706L1362.58 655.736V655.344L1362.23 655.544L1361.89 655.344V655.736L1300.83 690.988L1300.66 691.091V762.593L1361.89 727.238V868.246L1423.12 903.601V904L1423.47 903.8L1423.81 904V903.601L1484.86 868.349L1485.04 868.246V797.941L1545.61 832.897V833.297L1545.96 833.097L1546.3 833.297V832.897L1607.36 797.646L1607.53 797.549V727.238L1668.08 762.194V833.297L1729.83 797.646L1730 797.549V726.047L1668.73 761.409V691.491L1729.79 656.239L1729.97 656.136V584.641L1668.7 619.989V549.678L1607.47 514.33V444.425L1668.7 479.773V408.705L1729.76 373.453L1729.93 373.35V301.82L1668.22 337.471L1668.05 337.568V407.872L1607.49 372.909V232.308L1668.72 267.656V196.161L1607.49 160.806V19L1545.74 54.6511L1545.57 54.7475V125.093L1484.99 90.137V89.7378L1484.64 89.9374L1484.3 89.7378V90.137L1423.8 125.093V54.7475L1362.58 19.3993V19L1362.23 19.1996L1361.89 19V19.3993L1300.83 54.6511L1300.66 54.7475V195.762L1240.08 160.806V19L1178.5 54.5479L1117.44 19.296L1116.92 19V90.1026L1055.86 125.361L1055.69 125.458V195.762L995.154 160.806V19L933.577 54.5479L872.516 19.296L872 19V90.495L933.233 125.857V196.161H933.253ZM933.942 195.762V125.857L989.289 93.8956L994.486 90.8942V160.806L949.169 186.964L933.942 195.762ZM933.253 337.169L872.709 302.22V232.308L933.253 267.257V337.169ZM933.942 196.553L979.252 170.395L994.486 161.577V231.509L933.907 266.465L933.942 196.553ZM995.209 232.308L1025.5 249.779L1055.79 267.257V337.169L1025.5 319.697L995.209 302.22V232.308ZM1056.43 196.553L1117.49 161.308L1117.67 161.205V90.8942L1178.25 125.857V266.465L1116.98 231.11V372.909L1056.43 407.865V196.533V196.553ZM1239.41 90.8942V160.806L1193.79 187.15L1178.87 195.762V125.857L1235.4 93.2072L1239.41 90.8942ZM1301.36 196.553L1362.25 161.405L1423.14 196.553V196.953L1423.49 196.753L1423.83 196.953V196.553L1484.72 161.405L1545.6 196.553V337.169L1485.02 302.22V301.82L1484.68 302.02L1484.33 301.82V302.22L1423.28 337.471L1423.11 337.568V407.872L1362.58 372.909V301.82L1300.83 337.471L1300.66 337.568V478.582L1240.08 443.626V443.234L1239.73 443.427L1239.39 443.234V443.626L1178.84 478.582V408.705L1239.91 373.453L1240.08 373.35V232.308L1301.34 267.656L1301.36 196.553ZM1423.14 125.857V195.762L1362.58 160.806V90.8942L1392.87 108.372L1423.14 125.857ZM1602.81 93.2072L1606.82 90.8942V160.806L1561.2 187.15L1546.27 195.762V125.857L1602.81 93.2072ZM1561.47 257.73L1546.27 266.5V196.553L1591.9 170.216L1606.8 161.577V231.509L1561.47 257.73ZM1606.82 303.046V372.909L1561.2 399.253L1546.27 407.865V337.967L1591.63 311.809L1606.82 303.046ZM1561.47 469.847L1546.27 478.617V408.705L1591.9 382.361L1606.82 373.749V443.626L1561.47 469.847ZM1545.93 550.311L1546.27 550.511V550.112L1606.82 515.156V655.736L1545.93 690.892L1485.04 655.736V515.121L1545.62 550.077V550.511L1545.93 550.311ZM1668.05 620.822V690.692L1637.76 673.214L1607.47 655.736V585.831L1637.76 603.309L1668.05 620.822ZM1550.26 759.089L1546.25 761.402V691.491L1606.8 656.521V726.426L1550.26 759.089ZM1439.28 823.164L1423.8 832.113V762.194L1484.33 727.238V797.15L1439.28 823.164ZM1484.33 726.047V726.447L1423.8 761.409V691.491L1484.33 656.521V726.047ZM1485.02 726.447V656.521L1545.6 691.477V761.389L1515.31 743.911L1485.02 726.447ZM1545.6 549.292L1485.02 514.336V444.425L1545.6 479.374V549.285V549.292ZM1484.71 443.434L1484.37 443.241V443.633L1423.83 478.589V408.705L1484.72 373.549L1545.57 408.705V478.582L1484.99 443.626V443.234L1484.71 443.434ZM1484.37 372.93L1423.83 407.879V337.967L1484.37 303.011V372.93ZM1545.63 338.373V407.899L1485.06 372.95V303.011L1545.63 337.967V338.373ZM1316.59 469.853L1301.31 478.582V408.705L1346.93 382.361L1361.89 373.715V443.626L1316.59 469.853ZM1301.4 407.899V337.967L1361.89 303.011V372.909L1316.26 399.253L1301.4 407.899ZM1117.63 372.909V303.011L1147.92 320.489L1178.21 337.967V407.872L1147.92 390.394L1117.63 372.909ZM1239.41 232.301V302.22L1194.06 328.378L1178.87 337.141V267.257L1224.22 241.098L1239.41 232.301ZM1239.41 303.004V372.909L1178.87 407.858V337.967L1224.22 311.809L1239.41 303.004ZM1178.18 267.649V337.175L1147.89 319.704L1117.6 302.226V232.308L1178.18 267.257V267.649ZM1194.06 257.688L1178.87 266.458V196.553L1224.48 170.216L1239.41 161.577V231.509L1194.06 257.688ZM995.174 303.004L1025.46 320.482L1055.75 337.96V407.872L995.174 372.909V303.004ZM1056.4 409.056V408.705L1116.94 373.749V443.626L1056.4 478.582V409.056ZM1117.63 373.708L1147.92 391.186L1178.21 408.664V478.582L1117.63 443.626V373.708ZM1178.9 479.367L1239.44 444.418V514.33L1193.82 540.667L1178.9 549.285V479.374V479.367ZM1117.63 585.033V515.121L1178.21 550.077V619.989L1117.63 585.033ZM1239.41 585.033L1178.87 619.982V550.077L1224.48 523.74L1239.41 515.121V585.033ZM1240.1 513.923V444.397L1300.68 479.346V549.285L1240.1 514.33V513.923ZM1361.89 585.04L1301.31 619.989V550.077L1346.93 523.74L1361.89 515.121V585.04ZM1316.25 540.667L1301.31 549.285V479.374L1346.66 453.215L1361.89 444.425V514.33L1316.25 540.667ZM1362.58 443.234V373.708L1423.11 408.705V478.582L1362.58 443.626V443.234ZM1423.81 479.374L1484.35 444.425V514.33L1439.04 540.488L1423.81 549.285V479.374ZM1469.12 523.919L1484.35 515.121V585.04L1439.28 611.088L1423.8 620.037V550.077L1469.12 523.919ZM1468.86 594.773L1484.35 585.825V655.736L1423.81 690.692V620.787L1468.86 594.773ZM1301.31 761.402V691.491L1361.89 656.521V726.426L1301.31 761.402ZM1362.58 867.853V656.521L1423.12 691.477V902.809L1362.58 867.853ZM1484.35 867.853L1423.81 902.802V832.897L1468.86 806.884L1484.35 797.935V867.853ZM1485.04 797.15V727.238L1515.32 744.716L1545.61 762.194V832.106L1485.04 797.15ZM1606.81 797.15L1546.27 832.106V762.194L1602.81 729.551L1606.81 727.238V797.15ZM1607.5 726.04V656.521L1637.79 673.999L1668.08 691.477V761.389L1607.53 726.426L1607.5 726.04ZM1729.28 727.238V797.15L1668.7 832.106V762.194L1729.28 727.238ZM1729.28 655.736L1668.7 690.692V620.787L1729.28 585.831V655.736ZM1668.01 619.989L1637.72 602.518L1607.43 585.04V515.121L1667.98 550.077L1668.01 619.989ZM1606.78 514.33L1546.23 549.285V479.374L1591.59 453.215L1606.78 444.445V514.33ZM1668.7 337.967L1729.28 303.011V372.909L1668.7 407.858V337.967ZM1668.01 409.063V478.589L1607.47 443.633V373.715L1668.03 408.705L1668.01 409.063ZM1561.45 328.405L1546.25 337.169V267.257L1591.61 241.098L1606.8 232.335V302.22L1561.45 328.405ZM1668.03 266.451L1607.49 231.496V161.577L1668.03 196.526V266.451ZM1546.25 55.1192L1606.8 20.1634V90.1026L1550.26 122.746L1546.25 125.058V55.1192ZM1545.57 125.829V195.762L1484.99 160.806V90.8942L1545.57 125.829ZM1484.3 160.778L1423.76 195.734V125.857L1484.3 90.8942V160.778ZM1423.11 55.1468V125.093L1392.82 107.615L1362.53 90.137V20.1909L1423.11 55.1468ZM1301.33 55.1468L1361.89 20.1909V90.1026L1305.35 122.746L1301.31 125.093L1301.33 55.1468ZM1357.87 93.2072L1361.87 90.8942V160.806L1301.31 195.762V125.857L1357.87 93.2072ZM1300.62 196.953V266.479L1240.04 231.523V161.577L1300.62 196.526V196.953ZM1239.35 90.1026L1182.91 122.746L1178.9 125.058V55.1468L1239.44 20.1909L1239.35 90.1026ZM1117.63 20.1909L1178.21 55.1468V125.093L1117.63 90.137V20.1909ZM1056.4 125.857L1116.94 90.8942V160.806L1056.4 195.762V125.857ZM1055.71 196.953V266.479L1025.42 249.001L995.133 231.523V161.577L1055.67 196.526L1055.71 196.953ZM994.486 90.1026L939.132 122.064L933.942 125.058V55.1468L994.52 20.1909L994.486 90.1026ZM872.709 20.1909L933.253 55.1468V125.093L872.709 90.137V20.1909Z" fill="#898989"/>
<g opacity="0.2" filter="url(#filter0_f_2418_4542)">
<circle cx="1196.5" cy="261.5" r="159.5" fill="#FF3B56"/>
</g>
<g opacity="0.2" filter="url(#filter1_f_2418_4542)">
<ellipse cx="-74" cy="350.5" rx="186" ry="186.5" fill="#8851F8"/>
</g>
</g>
<defs>
<filter id="filter0_f_2418_4542" x="537" y="-398" width="1319" height="1319" filterUnits="userSpaceOnUse" color-interpolation-filters="sRGB">
<feFlood flood-opacity="0" result="BackgroundImageFix"/>
<feBlend mode="normal" in="SourceGraphic" in2="BackgroundImageFix" result="shape"/>
<feGaussianBlur stdDeviation="250" result="effect1_foregroundBlur_2418_4542"/>
</filter>
<filter id="filter1_f_2418_4542" x="-760" y="-336" width="1372" height="1373" filterUnits="userSpaceOnUse" color-interpolation-filters="sRGB">
<feFlood flood-opacity="0" result="BackgroundImageFix"/>
<feBlend mode="normal" in="SourceGraphic" in2="BackgroundImageFix" result="shape"/>
<feGaussianBlur stdDeviation="250" result="effect1_foregroundBlur_2418_4542"/>
</filter>
</defs>
</svg>
