<svg width="44" height="44" viewBox="0 0 44 44" fill="none" xmlns="http://www.w3.org/2000/svg">
<g clip-path="url(#clip0_2411_1506)">
<path d="M4.125 30.9375H13.5575L12.5262 35.0625H12.375C11.4637 35.0636 10.5899 35.4261 9.94553 36.0705C9.30111 36.7149 8.93859 37.5886 8.9375 38.5C8.9375 38.6823 9.00993 38.8572 9.13886 38.9861C9.26779 39.1151 9.44266 39.1875 9.625 39.1875H14.5647C14.8023 40.267 15.3744 41.244 16.1994 41.9796C17.0243 42.7152 18.0603 43.1719 19.1598 43.2848C20.2594 43.3976 21.3665 43.1609 22.3237 42.6082C23.281 42.0555 24.0395 41.215 24.4915 40.2064L24.6469 39.8592C25.0134 39.0446 25.6074 38.3533 26.3575 37.8683C27.1076 37.3833 27.9818 37.1253 28.875 37.1253C29.7682 37.1253 30.6424 37.3833 31.3925 37.8683C32.1426 38.3533 32.7366 39.0446 33.1031 39.8592L33.2585 40.2071C33.7757 41.3679 34.6964 42.3019 35.8497 42.8358C37.003 43.3698 38.3108 43.4674 39.5306 43.1107C40.7504 42.754 41.7995 41.9671 42.4834 40.8959C43.1673 39.8247 43.4397 38.5418 43.2499 37.2852V37.2659L41.9272 30.1008C41.7834 29.1487 41.3907 28.2514 40.7889 27.4997C40.1872 26.748 39.3976 26.1685 38.5 25.8197V24.75C38.4991 24.4616 38.4374 24.1766 38.3189 23.9136C38.2005 23.6506 38.0279 23.4156 37.8125 23.2237V4.125C37.8114 3.21365 37.4489 2.33995 36.8045 1.69553C36.16 1.05111 35.2863 0.688592 34.375 0.6875H4.125C3.21365 0.688592 2.33995 1.05111 1.69553 1.69553C1.05111 2.33995 0.688592 3.21365 0.6875 4.125V27.5C0.688592 28.4113 1.05111 29.2851 1.69553 29.9295C2.33995 30.5739 3.21365 30.9364 4.125 30.9375ZM14.9737 30.9375H15.6681L14.9119 35.0625H13.9425L14.9737 30.9375ZM12.375 36.4375H14.6561L14.5001 37.2845C14.4736 37.4595 14.4559 37.6357 14.4471 37.8125H10.4301C10.5728 37.4106 10.8363 37.0628 11.1845 36.8166C11.5327 36.5704 11.9486 36.438 12.375 36.4375ZM40.5721 30.3304L41.8928 37.5038C41.9761 38.0504 41.9402 38.6086 41.7878 39.1401C41.6353 39.6715 41.3698 40.1638 41.0094 40.5831C40.5829 41.0797 40.0381 41.4606 39.4252 41.6906C38.8124 41.9206 38.1515 41.9922 37.5036 41.8987C36.8558 41.8053 36.242 41.5498 35.7191 41.1561C35.1962 40.7623 34.7812 40.2429 34.5125 39.6461L34.3578 39.2982C33.8829 38.2411 33.1126 37.3438 32.1396 36.7142C31.1667 36.0847 30.0325 35.7498 28.8736 35.7498C27.7147 35.7498 26.5806 36.0847 25.6076 36.7142C24.6346 37.3438 23.8643 38.2411 23.3894 39.2982L23.2347 39.6454C22.9659 40.2417 22.551 40.7606 22.0284 41.1541C21.5058 41.5475 20.8924 41.8028 20.245 41.8963C19.5976 41.9898 18.937 41.9185 18.3245 41.6889C17.7119 41.4594 17.1672 41.0791 16.7406 40.5831C16.3809 40.1654 16.1156 39.675 15.9627 39.1453C15.8099 38.6157 15.7732 38.0593 15.8551 37.5141L17.1813 30.3105C17.3302 29.3321 17.8265 28.44 18.5793 27.7976C19.3322 27.1553 20.2912 26.8055 21.2809 26.8125H36.4691C37.4619 26.807 38.4233 27.1597 39.177 27.8059C39.9307 28.4521 40.426 29.3485 40.5721 30.3304ZM23.375 25.4375H21.2809C21.0616 25.4388 20.8426 25.4531 20.625 25.4801V24.75C20.625 24.5677 20.6974 24.3928 20.8264 24.2639C20.9553 24.1349 21.1302 24.0625 21.3125 24.0625H22.6875C22.8698 24.0625 23.0447 24.1349 23.1736 24.2639C23.3026 24.3928 23.375 24.5677 23.375 24.75V25.4375ZM36.4691 25.4375H34.375V24.75C34.375 24.5677 34.4474 24.3928 34.5764 24.2639C34.7053 24.1349 34.8802 24.0625 35.0625 24.0625H36.4375C36.6198 24.0625 36.7947 24.1349 36.9236 24.2639C37.0526 24.3928 37.125 24.5677 37.125 24.75V25.4801C36.9074 25.4531 36.6884 25.4388 36.4691 25.4375ZM2.0625 4.125C2.0625 3.57799 2.2798 3.05339 2.66659 2.66659C3.05339 2.2798 3.57799 2.0625 4.125 2.0625H34.375C34.922 2.0625 35.4466 2.2798 35.8334 2.66659C36.2202 3.05339 36.4375 3.57799 36.4375 4.125V22.6875H35.0625V4.125C35.0625 3.94266 34.9901 3.7678 34.8611 3.63886C34.7322 3.50993 34.5573 3.4375 34.375 3.4375H4.125C3.94266 3.4375 3.7678 3.50993 3.63886 3.63886C3.50993 3.7678 3.4375 3.94266 3.4375 4.125V24.75C3.4375 24.9323 3.50993 25.1072 3.63886 25.2361C3.7678 25.3651 3.94266 25.4375 4.125 25.4375H17.875V24.0625H4.8125V4.8125H33.6875V23.2237C33.4721 23.4156 33.2995 23.6506 33.1811 23.9136C33.0626 24.1766 33.0009 24.4616 33 24.75V25.4375H29.5625C29.5625 24.8905 29.3452 24.3659 28.9584 23.9791C28.5716 23.5923 28.047 23.375 27.5 23.375H27.1562C27.0651 23.375 26.9776 23.3388 26.9132 23.2743C26.8487 23.2099 26.8125 23.1224 26.8125 23.0312C26.8125 22.9401 26.8487 22.8526 26.9132 22.7882C26.9776 22.7237 27.0651 22.6875 27.1562 22.6875H28.875C29.6043 22.6875 30.3038 22.3978 30.8195 21.882C31.3353 21.3663 31.625 20.6668 31.625 19.9375V19.25H30.25V19.9375C30.25 20.3022 30.1051 20.6519 29.8473 20.9098C29.5894 21.1676 29.2397 21.3125 28.875 21.3125H27.1562C26.7004 21.3125 26.2632 21.4936 25.9409 21.8159C25.6186 22.1382 25.4375 22.5754 25.4375 23.0312C25.4375 23.4871 25.6186 23.9243 25.9409 24.2466C26.2632 24.5689 26.7004 24.75 27.1562 24.75H27.5C27.6823 24.75 27.8572 24.8224 27.9861 24.9514C28.1151 25.0803 28.1875 25.2552 28.1875 25.4375H24.75V24.75C24.75 24.203 24.5327 23.6784 24.1459 23.2916C23.7591 22.9048 23.2345 22.6875 22.6875 22.6875H21.3125C20.7655 22.6875 20.2409 22.9048 19.8541 23.2916C19.4673 23.6784 19.25 24.203 19.25 24.75V25.8191C18.4385 26.133 17.7139 26.6367 17.1368 27.2879C16.5597 27.9392 16.1469 28.7191 15.9328 29.5625H4.125C3.57799 29.5625 3.05339 29.3452 2.66659 28.9584C2.2798 28.5716 2.0625 28.047 2.0625 27.5V4.125Z" fill="white"/>
<path d="M26.125 30.25H24.75V28.875C24.75 28.6927 24.6776 28.5178 24.5486 28.3889C24.4197 28.2599 24.2448 28.1875 24.0625 28.1875H21.3125C21.1302 28.1875 20.9553 28.2599 20.8264 28.3889C20.6974 28.5178 20.625 28.6927 20.625 28.875V30.25H19.25C19.0677 30.25 18.8928 30.3224 18.7639 30.4514C18.6349 30.5803 18.5625 30.7552 18.5625 30.9375V33.6875C18.5625 33.8698 18.6349 34.0447 18.7639 34.1736C18.8928 34.3026 19.0677 34.375 19.25 34.375H20.625V35.75C20.625 35.9323 20.6974 36.1072 20.8264 36.2361C20.9553 36.3651 21.1302 36.4375 21.3125 36.4375H24.0625C24.2448 36.4375 24.4197 36.3651 24.5486 36.2361C24.6776 36.1072 24.75 35.9323 24.75 35.75V34.375H26.125C26.3073 34.375 26.4822 34.3026 26.6111 34.1736C26.7401 34.0447 26.8125 33.8698 26.8125 33.6875V30.9375C26.8125 30.7552 26.7401 30.5803 26.6111 30.4514C26.4822 30.3224 26.3073 30.25 26.125 30.25ZM25.4375 33H24.0625C23.8802 33 23.7053 33.0724 23.5764 33.2014C23.4474 33.3303 23.375 33.5052 23.375 33.6875V35.0625H22V33.6875C22 33.5052 21.9276 33.3303 21.7986 33.2014C21.6697 33.0724 21.4948 33 21.3125 33H19.9375V31.625H21.3125C21.4948 31.625 21.6697 31.5526 21.7986 31.4236C21.9276 31.2947 22 31.1198 22 30.9375V29.5625H23.375V30.9375C23.375 31.1198 23.4474 31.2947 23.5764 31.4236C23.7053 31.5526 23.8802 31.625 24.0625 31.625H25.4375V33ZM33 29.5625C33.0019 29.8777 33.077 30.1881 33.2193 30.4693C32.9381 30.327 32.6277 30.2519 32.3125 30.25C31.7655 30.25 31.2409 30.4673 30.8541 30.8541C30.4673 31.2409 30.25 31.7655 30.25 32.3125C30.25 32.8595 30.4673 33.3841 30.8541 33.7709C31.2409 34.1577 31.7655 34.375 32.3125 34.375C32.6277 34.3731 32.9381 34.298 33.2193 34.1557C33.077 34.4369 33.0019 34.7473 33 35.0625C33 35.6095 33.2173 36.1341 33.6041 36.5209C33.9909 36.9077 34.5155 37.125 35.0625 37.125C35.6095 37.125 36.1341 36.9077 36.5209 36.5209C36.9077 36.1341 37.125 35.6095 37.125 35.0625C37.1231 34.7473 37.048 34.4369 36.9057 34.1557C37.1869 34.298 37.4973 34.3731 37.8125 34.375C38.3595 34.375 38.8841 34.1577 39.2709 33.7709C39.6577 33.3841 39.875 32.8595 39.875 32.3125C39.875 31.7655 39.6577 31.2409 39.2709 30.8541C38.8841 30.4673 38.3595 30.25 37.8125 30.25C37.4973 30.2519 37.1869 30.327 36.9057 30.4693C37.048 30.1881 37.1231 29.8777 37.125 29.5625C37.125 29.0155 36.9077 28.4909 36.5209 28.1041C36.1341 27.7173 35.6095 27.5 35.0625 27.5C34.5155 27.5 33.9909 27.7173 33.6041 28.1041C33.2173 28.4909 33 29.0155 33 29.5625ZM34.1557 31.4057C34.4362 31.5498 34.7471 31.625 35.0625 31.625C35.3779 31.625 35.6888 31.5498 35.9693 31.4057C35.8252 31.6862 35.75 31.9971 35.75 32.3125C35.75 32.6279 35.8252 32.9388 35.9693 33.2193C35.6888 33.0752 35.3779 33 35.0625 33C34.7471 33 34.4362 33.0752 34.1557 33.2193C34.2998 32.9388 34.375 32.6279 34.375 32.3125C34.375 31.9971 34.2998 31.6862 34.1557 31.4057ZM32.3125 33C32.1765 33 32.0436 32.9597 31.9305 32.8841C31.8175 32.8086 31.7294 32.7012 31.6773 32.5756C31.6253 32.45 31.6117 32.3117 31.6382 32.1784C31.6647 32.045 31.7302 31.9225 31.8264 31.8264C31.9225 31.7302 32.045 31.6647 32.1784 31.6382C32.3117 31.6117 32.45 31.6253 32.5756 31.6773C32.7012 31.7294 32.8086 31.8175 32.8841 31.9305C32.9597 32.0436 33 32.1765 33 32.3125C33 32.4948 32.9276 32.6697 32.7986 32.7986C32.6697 32.9276 32.4948 33 32.3125 33ZM35.0625 35.75C34.9265 35.75 34.7936 35.7097 34.6805 35.6341C34.5675 35.5586 34.4794 35.4512 34.4273 35.3256C34.3753 35.2 34.3617 35.0617 34.3882 34.9284C34.4147 34.795 34.4802 34.6725 34.5764 34.5764C34.6725 34.4802 34.795 34.4147 34.9284 34.3882C35.0617 34.3617 35.2 34.3753 35.3256 34.4273C35.4512 34.4794 35.5586 34.5675 35.6341 34.6805C35.7097 34.7936 35.75 34.9265 35.75 35.0625C35.75 35.2448 35.6776 35.4197 35.5486 35.5486C35.4197 35.6776 35.2448 35.75 35.0625 35.75ZM37.8125 31.625C37.9485 31.625 38.0814 31.6653 38.1945 31.7409C38.3075 31.8164 38.3956 31.9238 38.4477 32.0494C38.4997 32.175 38.5133 32.3133 38.4868 32.4466C38.4603 32.58 38.3948 32.7025 38.2986 32.7986C38.2025 32.8948 38.08 32.9603 37.9466 32.9868C37.8133 33.0133 37.675 32.9997 37.5494 32.9477C37.4238 32.8956 37.3164 32.8075 37.2409 32.6945C37.1653 32.5814 37.125 32.4485 37.125 32.3125C37.125 32.1302 37.1974 31.9553 37.3264 31.8264C37.4553 31.6974 37.6302 31.625 37.8125 31.625ZM35.75 29.5625C35.75 29.6985 35.7097 29.8314 35.6341 29.9445C35.5586 30.0575 35.4512 30.1456 35.3256 30.1977C35.2 30.2497 35.0617 30.2633 34.9284 30.2368C34.795 30.2103 34.6725 30.1448 34.5764 30.0486C34.4802 29.9525 34.4147 29.83 34.3882 29.6966C34.3617 29.5633 34.3753 29.425 34.4273 29.2994C34.4794 29.1738 34.5675 29.0664 34.6805 28.9909C34.7936 28.9153 34.9265 28.875 35.0625 28.875C35.2448 28.875 35.4197 28.9474 35.5486 29.0764C35.6776 29.2053 35.75 29.3802 35.75 29.5625ZM29.5625 19.25V8.25C29.5625 8.06766 29.4901 7.8928 29.3611 7.76386C29.2322 7.63493 29.0573 7.5625 28.875 7.5625H9.625C9.44266 7.5625 9.2678 7.63493 9.13886 7.76386C9.00993 7.8928 8.9375 8.06766 8.9375 8.25V19.25C8.9375 19.4323 9.00993 19.6072 9.13886 19.7361C9.2678 19.8651 9.44266 19.9375 9.625 19.9375H28.875C29.0573 19.9375 29.2322 19.8651 29.3611 19.7361C29.4901 19.6072 29.5625 19.4323 29.5625 19.25ZM28.1875 18.5625H10.3125V8.9375H28.1875V18.5625Z" fill="white"/>
<path d="M16.0143 16.2986L16.9864 15.3265L15.41 13.75L16.9864 12.1736L16.0143 11.2015L13.9518 13.264C13.8229 13.3929 13.7505 13.5677 13.7505 13.75C13.7505 13.9323 13.8229 14.1072 13.9518 14.2361L16.0143 16.2986ZM22.4864 16.2986L24.5489 14.2361C24.6778 14.1072 24.7502 13.9323 24.7502 13.75C24.7502 13.5677 24.6778 13.3929 24.5489 13.264L22.4864 11.2015L21.5143 12.1736L23.0907 13.75L21.5143 15.3265L22.4864 16.2986ZM17.9097 16.2821L19.9743 10.0953L21.2785 10.5305L19.2139 16.7173L17.9097 16.2821Z" fill="white"/>
</g>
<defs>
<clipPath id="clip0_2411_1506">
<rect width="44" height="44" fill="white"/>
</clipPath>
</defs>
</svg>
