<svg width="44" height="44" viewBox="0 0 44 44" fill="none" xmlns="http://www.w3.org/2000/svg">
<path d="M27.7707 16.4301C27.7232 16.4341 27.6757 16.4436 27.6294 16.4591L26.1939 16.9376C26.0444 16.9877 25.8811 16.977 25.7396 16.9075C25.4105 16.7452 25.0712 16.6045 24.7238 16.4864C24.5748 16.4353 24.4519 16.3275 24.3818 16.1865L23.7054 14.8337C23.6552 14.7334 23.5782 14.6491 23.4828 14.5901C23.3875 14.5312 23.2776 14.5 23.1655 14.5H20.8347C20.7226 14.5 20.6127 14.5312 20.5173 14.5901C20.422 14.6491 20.3449 14.7334 20.2948 14.8337L19.6184 16.1865C19.5483 16.3276 19.4254 16.4353 19.2764 16.4864C18.9289 16.6044 18.5896 16.7451 18.2606 16.9075C18.119 16.977 17.9558 16.9877 17.8063 16.9376L16.3708 16.4591C16.2644 16.4236 16.1503 16.4185 16.0412 16.4443C15.9321 16.47 15.8323 16.5257 15.7531 16.6049L14.105 18.253C14.0257 18.3323 13.9701 18.4321 13.9443 18.5412C13.9185 18.6503 13.9237 18.7644 13.9591 18.8708L14.4376 20.3062C14.4878 20.4557 14.477 20.619 14.4076 20.7606C14.2452 21.0896 14.1045 21.4289 13.9864 21.7763C13.9353 21.9254 13.8276 22.0482 13.6865 22.1183L12.3337 22.7948C12.2334 22.8449 12.1491 22.922 12.0901 23.0173C12.0312 23.1127 12 23.2226 12 23.3347V25.6654C12 25.7775 12.0312 25.8874 12.0901 25.9828C12.1491 26.0781 12.2334 26.1552 12.3337 26.2053L13.6865 26.8818C13.8276 26.9519 13.9353 27.0747 13.9864 27.2238C14.1044 27.5712 14.2451 27.9105 14.4076 28.2395C14.477 28.3811 14.4878 28.5444 14.4376 28.6939L13.9591 30.1293C13.9237 30.2357 13.9185 30.3498 13.9443 30.4589C13.9701 30.568 14.0257 30.6678 14.105 30.7471L15.7531 32.3952C15.8323 32.4744 15.9321 32.5301 16.0412 32.5558C16.1503 32.5816 16.2644 32.5765 16.3708 32.541L17.8063 32.0625C17.9558 32.0123 18.119 32.0231 18.2606 32.0926C18.5897 32.2549 18.929 32.3956 19.2764 32.5137C19.4254 32.5648 19.5483 32.6726 19.6184 32.8136L20.2948 34.1664C20.3449 34.2667 20.422 34.351 20.5173 34.41C20.6127 34.4689 20.7226 34.5001 20.8347 34.5001H23.1655C23.2776 34.5001 23.3875 34.4689 23.4828 34.41C23.5782 34.351 23.6552 34.2667 23.7054 34.1664L24.3818 32.8136C24.4519 32.6725 24.5748 32.5648 24.7238 32.5137C25.0712 32.3957 25.4105 32.255 25.7396 32.0926C25.8811 32.0231 26.0444 32.0124 26.1939 32.0625L27.6294 32.541C27.7357 32.5765 27.8498 32.5816 27.9589 32.5558C28.068 32.5301 28.1678 32.4744 28.2471 32.3952L29.8952 30.7471C29.9745 30.6678 30.0301 30.568 30.0559 30.4589C30.0816 30.3498 30.0765 30.2357 30.041 30.1293L29.5626 28.6939C29.5123 28.5444 29.5231 28.3811 29.5926 28.2395C29.7549 27.9105 29.8956 27.5712 30.0138 27.2238C30.0648 27.0747 30.1726 26.9519 30.3136 26.8818L31.6665 26.2053C31.7667 26.1552 31.8511 26.0781 31.91 25.9828C31.9689 25.8874 32.0002 25.7775 32.0002 25.6654V23.3347C32.0002 23.2226 31.9689 23.1127 31.91 23.0173C31.8511 22.922 31.7667 22.8449 31.6665 22.7948L30.3136 22.1183C30.1726 22.0482 30.0648 21.9254 30.0138 21.7763C29.8957 21.4289 29.755 21.0896 29.5926 20.7606C29.5232 20.619 29.5124 20.4557 29.5626 20.3062L30.041 18.8708C30.0765 18.7644 30.0816 18.6503 30.0559 18.5412C30.0301 18.4321 29.9745 18.3323 29.8952 18.253" stroke="white" stroke-width="1.40479" stroke-miterlimit="10" stroke-linecap="round" stroke-linejoin="round"/>
<path d="M18.25 22L15.75 24.5L18.25 27M25.75 22L28.25 24.5L25.75 27M23.25 22L20.75 27" stroke="white" stroke-width="1.40479" stroke-miterlimit="10" stroke-linecap="round" stroke-linejoin="round"/>
<path d="M11.5667 38.25H39.9879C41.0992 38.25 42 37.3491 42 36.2379V10.75M42 10.75H2M42 10.75V7.7621C42 6.65088 41.0992 5.75003 39.9879 5.75003H8.69239M2 10.75V36.238C2 37.3492 2.90085 38.2501 4.01207 38.2501H8.74978M2 10.75V7.7621C2 6.65088 2.90085 5.75003 4.01207 5.75003H5.87549" stroke="white" stroke-width="1.40479" stroke-miterlimit="10" stroke-linecap="round" stroke-linejoin="round"/>
</svg>
