<svg width="154" height="175" viewBox="0 0 154 175" fill="none" xmlns="http://www.w3.org/2000/svg">
<g opacity="0.3">
<path fill-rule="evenodd" clip-rule="evenodd" d="M144.061 61.9996C144.717 55.5663 145.422 49.2078 145.89 42.7587C145.996 41.3717 144.962 40.1726 143.584 40.0718C142.197 39.9661 140.993 41.0083 140.892 42.3867C140.422 48.7997 139.724 55.1045 139.071 61.4931C138.934 62.8738 139.939 64.103 141.306 64.2435C142.687 64.3803 143.924 63.3803 144.061 61.9996Z" fill="white"/>
<path fill-rule="evenodd" clip-rule="evenodd" d="M95.2552 83.8683C83.4738 67.1728 70.856 51.083 58.7262 34.6497C57.8987 33.5347 56.3304 33.3013 55.2205 34.1201C54.1055 34.9477 53.8635 36.5107 54.686 37.6344C66.7998 54.0353 79.4016 70.0923 91.1533 86.7591C91.9571 87.8951 93.5188 88.1599 94.6498 87.3648C95.7859 86.561 96.0504 84.9993 95.2552 83.8683Z" fill="white"/>
<path fill-rule="evenodd" clip-rule="evenodd" d="M54.3294 145.123C38.1891 138.967 21.8515 133.253 5.7804 126.917C4.49338 126.417 3.03976 127.049 2.5313 128.331C2.01782 129.622 2.65837 131.08 3.94036 131.589C20.0338 137.926 36.3889 143.65 52.5516 149.807C53.8436 150.298 55.2938 149.653 55.7849 148.361C56.281 147.06 55.6301 145.619 54.3294 145.123Z" fill="white"/>
</g>
</svg>
