<svg width="238" height="227" viewBox="0 0 238 227" fill="none" xmlns="http://www.w3.org/2000/svg">
<g opacity="0.1">
<path fill-rule="evenodd" clip-rule="evenodd" d="M83.8912 140.381C85.438 144.453 87.474 148.394 89.848 152.012C94.4908 159.089 102.605 167.732 111.657 173.07C117.862 176.729 124.509 178.825 130.803 177.975C142.79 176.356 150.886 166.277 155.155 153.413C158.268 144.03 159.356 133.188 158.535 123.297C162.264 129.689 167.757 136.792 174.326 141.553C181.687 146.895 190.371 149.319 199.482 144.94C218.524 135.784 221.799 118.18 216.685 101.155C211.659 84.4315 198.448 68.3197 184.494 61.7141C183.755 61.367 182.872 61.6828 182.523 62.4202C182.175 63.1577 182.49 64.0396 183.229 64.3865C196.522 70.6846 209.066 86.0695 213.852 102.006C218.55 117.641 215.688 133.868 198.203 142.272C190.178 146.129 182.544 143.867 176.06 139.162C169.316 134.267 163.785 126.755 160.25 120.332C159.292 118.595 158.315 116.859 157.363 115.109C155.97 108.404 153.566 102.572 150.248 98.5047C149.422 97.4984 148.537 97.9094 148.294 98.0368C147.963 98.2099 147.542 98.5526 147.494 99.2816C147.484 99.4186 147.498 99.6939 147.6 100.049C147.742 100.529 148.124 101.484 148.26 101.921C148.813 103.731 149.535 105.519 150.252 107.265C151.496 110.304 152.99 113.233 154.555 116.122C154.673 116.72 154.785 117.319 154.888 117.925C156.722 128.788 155.943 141.648 152.349 152.481C148.464 164.187 141.315 173.571 130.407 175.045C124.729 175.812 118.756 173.824 113.159 170.523C104.508 165.421 96.7574 157.154 92.3201 150.39C89.6098 146.258 87.36 141.686 85.8263 136.984C85.3172 135.423 84.9751 133.788 84.6735 132.175C84.6404 131.998 84.6016 131.742 84.5619 131.451C84.5064 130.614 84.4149 129.787 84.2862 128.97C84.2182 128.54 84.1164 128.342 84.0978 128.306C83.6096 127.365 82.8198 127.462 82.4617 127.543C82.3552 127.566 81.256 127.848 81.3052 129.082C81.3156 129.332 81.4728 130.729 81.6229 131.799C82.1791 140.7 78.2806 150.524 72.1504 156.785C68.264 160.754 63.4688 163.295 58.3133 163.089C54.885 162.951 51.3183 161.593 47.7659 158.705C39.1989 151.74 34.401 141.787 31.1925 131.092C27.9102 120.151 26.2952 108.427 24.1803 98.1763C24.0156 97.3773 23.2329 96.8623 22.4337 97.0274C21.6348 97.192 21.1197 97.9747 21.2848 98.7739C23.4155 109.104 25.053 120.915 28.3603 131.941C31.742 143.213 36.8717 153.659 45.9008 160.999C50.0335 164.359 54.2067 165.883 58.1951 166.043C64.1636 166.282 69.7638 163.449 74.2628 158.854C78.9643 154.052 82.4473 147.326 83.8912 140.381Z" fill="white"/>
</g>
</svg>
