<svg width="24" height="24" viewBox="0 0 24 24" fill="none" xmlns="http://www.w3.org/2000/svg">
<path d="M19.0002 15.0015C19.0013 15.2001 18.9433 15.3946 18.8335 15.5601C18.7237 15.7256 18.5671 15.8547 18.3837 15.9309C18.2002 16.007 17.9983 16.0269 17.8035 15.9878C17.6088 15.9487 17.4301 15.8525 17.2902 15.7115L12.0002 10.4115L6.71019 15.7115C6.52188 15.8998 6.26649 16.0056 6.00019 16.0056C5.86833 16.0056 5.73776 15.9796 5.61594 15.9292C5.49411 15.8787 5.38342 15.8047 5.29019 15.7115C5.19695 15.6183 5.12299 15.5076 5.07253 15.3858C5.02207 15.2639 4.99609 15.1334 4.99609 15.0015C4.99609 14.7352 5.10188 14.4798 5.29019 14.2915L11.2902 8.29151C11.4775 8.10526 11.731 8.00072 11.9952 8.00072C12.2594 8.00072 12.5128 8.10526 12.7002 8.29151L18.7002 14.2915C18.7947 14.3841 18.8698 14.4946 18.9213 14.6164C18.9728 14.7383 18.9996 14.8692 19.0002 15.0015Z" fill="#8851F8"/>
</svg>
