<svg width="20" height="20" viewBox="0 0 20 20" fill="none" xmlns="http://www.w3.org/2000/svg">
<path d="M17.4481 3.3335H2.55226C1.60447 3.3335 0.833496 4.08111 0.833496 5.00017V15.0002C0.833496 15.9192 1.60447 16.6668 2.55226 16.6668H17.4481C18.3958 16.6668 19.1668 15.9192 19.1668 15.0002V5.00017C19.1668 4.08111 18.3958 3.3335 17.4481 3.3335ZM17.4481 4.4446C17.5259 4.4446 17.6 4.46026 17.6677 4.48761L10.0002 10.9317L2.33263 4.48761C2.40217 4.45934 2.47681 4.44472 2.55222 4.4446H17.4481ZM17.4481 15.5557H2.55226C2.23615 15.5557 1.97932 15.3067 1.97932 15.0001V5.66151L9.62474 12.0867C9.73273 12.1773 9.86645 12.2224 10.0002 12.2224C10.1339 12.2224 10.2676 12.1774 10.3756 12.0867L18.021 5.66151V15.0002C18.021 15.3067 17.7642 15.5557 17.4481 15.5557Z" fill="#E7E8EC"/>
</svg>
