<svg width="1440" height="200" viewBox="0 0 1440 200" fill="none" xmlns="http://www.w3.org/2000/svg">
<mask id="mask0_2417_467" style="mask-type:alpha" maskUnits="userSpaceOnUse" x="0" y="0" width="1440" height="200">
<rect width="1440" height="200" fill="#0B1121"/>
</mask>
<g mask="url(#mask0_2417_467)">
<g opacity="0.3" filter="url(#filter0_f_2417_467)">
<circle cx="1421.5" cy="65.5" r="159.5" fill="#FF3B56"/>
</g>
<g opacity="0.2" filter="url(#filter1_f_2417_467)">
<ellipse cx="48" cy="448.5" rx="186" ry="186.5" fill="#8851F8"/>
</g>
<path opacity="0.3" d="M-137.747 -19.8389V50.4652L-198.979 15.1032V86.6188L-137.058 122.366V51.2568L-76.4796 16.3078V157.315L-15.2884 192.705V263.773L46.2884 228.225L107.177 263.374V333.285L45.9097 297.93V369.439L107.177 404.787V405.187L107.521 404.987L107.865 405.187V404.787L168.926 369.535L169.098 369.439V299.121L229.677 334.077V405.187L291.425 369.535L291.598 369.439V228.425L352.142 263.374V474.706L291.577 439.736V439.344L291.233 439.544L290.888 439.344V439.736L229.828 474.988L229.656 475.091V546.593L290.888 511.238V652.246L352.121 687.601V688L352.465 687.8L352.809 688V687.601L413.863 652.349L414.035 652.246V581.941L474.614 616.897V617.297L474.958 617.097L475.302 617.297V616.897L536.363 581.646L536.535 581.549V511.238L597.079 546.194V617.297L658.828 581.646L659 581.549V510.047L597.733 545.409V475.491L658.793 440.239L658.966 440.136V368.641L597.699 403.989V333.678L536.466 298.33V228.425L597.699 263.773V192.705L658.759 157.453L658.931 157.35V85.8203L597.224 121.471L597.051 121.568V191.872L536.487 156.909V16.3078L597.719 51.6561V-19.8389L536.487 -55.194V-197L474.738 -161.349L474.566 -161.253V-90.9071L413.987 -125.863V-126.262L413.643 -126.063L413.299 -126.262V-125.863L352.796 -90.9071V-161.253L291.577 -196.601V-197L291.233 -196.8L290.888 -197V-196.601L229.828 -161.349L229.656 -161.253V-20.2382L169.077 -55.194V-197L107.5 -161.452L46.4398 -196.704L45.9235 -197V-125.897L-15.137 -90.6386L-15.3091 -90.5423V-20.2382L-75.8464 -55.194V-197L-137.423 -161.452L-198.484 -196.704L-199 -197V-125.505L-137.767 -90.143V-19.8389H-137.747ZM-137.058 -20.2382V-90.143L-81.7115 -122.104L-76.5141 -125.106V-55.194L-121.831 -29.0357L-137.058 -20.2382ZM-137.747 121.169L-198.291 86.2195V16.3078L-137.747 51.2568V121.169ZM-137.058 -19.4465L-91.7482 -45.6049L-76.5141 -54.4231V15.5093L-137.093 50.4652L-137.058 -19.4465ZM-75.7912 16.3078L-45.5019 33.7789L-15.2126 51.2568V121.169L-45.5019 103.697L-75.7912 86.2195V16.3078ZM-14.5656 -19.4465L46.4949 -54.6915L46.667 -54.7948V-125.106L107.246 -90.143V50.4652L45.9786 15.1101V156.909L-14.5656 191.865V-19.4672V-19.4465ZM168.409 -125.106V-55.194L122.79 -28.8498L107.865 -20.2382V-90.143L164.403 -122.793L168.409 -125.106ZM230.365 -19.4465L291.253 -54.5952L352.142 -19.4465V-19.0473L352.486 -19.2469L352.83 -19.0473V-19.4465L413.718 -54.5952L474.6 -19.4465V121.169L414.021 86.2195V85.8203L413.677 86.0199L413.333 85.8203V86.2195L352.279 121.471L352.107 121.568V191.872L291.577 156.909V85.8203L229.828 121.471L229.656 121.568V262.582L169.077 227.626V227.234L168.733 227.427L168.389 227.234V227.626L107.845 262.582V192.705L168.905 157.453L169.077 157.35V16.3078L230.344 51.6561L230.365 -19.4465ZM352.142 -90.143V-20.2382L291.577 -55.194V-125.106L321.866 -107.628L352.142 -90.143ZM531.812 -122.793L535.819 -125.106V-55.194L490.199 -28.8498L475.275 -20.2382V-90.143L531.812 -122.793ZM490.467 41.7296L475.275 50.4996V-19.4465L520.901 -45.7839L535.798 -54.4231V15.5093L490.467 41.7296ZM535.819 87.0456V156.909L490.199 183.253L475.275 191.865V121.967L520.633 95.8087L535.819 87.0456ZM490.467 253.847L475.275 262.617V192.705L520.901 166.361L535.819 157.749V227.626L490.467 253.847ZM474.931 334.311L475.275 334.511V334.112L535.819 299.156V439.736L474.931 474.892L414.042 439.736V299.121L474.621 334.077V334.511L474.931 334.311ZM597.051 404.822V474.692L566.762 457.214L536.473 439.736V369.831L566.762 387.309L597.051 404.822ZM479.26 543.089L475.254 545.402V475.491L535.798 440.521V510.426L479.26 543.089ZM368.278 607.164L352.796 616.113V546.194L413.333 511.238V581.15L368.278 607.164ZM413.333 510.047V510.447L352.796 545.409V475.491L413.333 440.521V510.047ZM414.021 510.447V440.521L474.6 475.477V545.389L444.311 527.911L414.021 510.447ZM474.6 333.292L414.021 298.336V228.425L474.6 263.374V333.285V333.292ZM413.712 227.434L413.367 227.241V227.633L352.83 262.589V192.705L413.718 157.549L474.566 192.705V262.582L413.987 227.626V227.234L413.712 227.434ZM413.367 156.93L352.83 191.879V121.967L413.367 87.0112V156.93ZM474.634 122.373V191.899L414.056 156.95V87.0112L474.634 121.967V122.373ZM245.585 253.853L230.31 262.582V192.705L275.93 166.361L290.888 157.715V227.626L245.585 253.853ZM230.399 191.899V121.967L290.888 87.0112V156.909L245.262 183.253L230.399 191.899ZM46.6326 156.909V87.0112L76.9219 104.489L107.211 121.967V191.872L76.9219 174.394L46.6326 156.909ZM168.409 16.3009V86.2195L123.058 112.378L107.865 121.141V51.2568L153.223 25.0984L168.409 16.3009ZM168.409 87.0043V156.909L107.865 191.858V121.967L153.223 95.8087L168.409 87.0043ZM107.177 51.6492V121.175L76.8874 103.704L46.5981 86.2264V16.3078L107.177 51.2568V51.6492ZM123.058 41.6883L107.865 50.4583V-19.4465L153.485 -45.7839L168.409 -54.4231V15.5093L123.058 41.6883ZM-75.8257 87.0043L-45.5364 104.482L-15.2471 121.96V191.872L-75.8257 156.909V87.0043ZM-14.6 193.056V192.705L45.9442 157.749V227.626L-14.6 262.582V193.056ZM46.6326 157.708L76.9219 175.186L107.211 192.664V262.582L46.6326 227.626V157.708ZM107.9 263.367L168.444 228.418V298.33L122.824 324.667L107.9 333.285V263.374V263.367ZM46.6326 369.033V299.121L107.211 334.077V403.989L46.6326 369.033ZM168.409 369.033L107.865 403.982V334.077L153.485 307.74L168.409 299.121V369.033ZM169.098 297.923V228.397L229.677 263.346V333.285L169.098 298.33V297.923ZM290.888 369.04L230.31 403.989V334.077L275.93 307.74L290.888 299.121V369.04ZM245.248 324.667L230.31 333.285V263.374L275.661 237.215L290.888 228.425V298.33L245.248 324.667ZM291.577 227.234V157.708L352.107 192.705V262.582L291.577 227.626V227.234ZM352.809 263.374L413.347 228.425V298.33L368.037 324.488L352.809 333.285V263.374ZM398.12 307.919L413.347 299.121V369.04L368.278 395.088L352.796 404.037V334.077L398.12 307.919ZM397.865 378.773L413.347 369.825V439.736L352.809 474.692V404.787L397.865 378.773ZM230.31 545.402V475.491L290.888 440.521V510.426L230.31 545.402ZM291.577 651.853V440.521L352.121 475.477V686.809L291.577 651.853ZM413.347 651.853L352.809 686.802V616.897L397.865 590.884L413.347 581.935V651.853ZM414.035 581.15V511.238L444.324 528.716L474.614 546.194V616.106L414.035 581.15ZM535.812 581.15L475.268 616.106V546.194L531.806 513.551L535.812 511.238V581.15ZM536.5 510.04V440.521L566.79 457.999L597.079 475.477V545.389L536.535 510.426L536.5 510.04ZM658.277 511.238V581.15L597.699 616.106V546.194L658.277 511.238ZM658.277 439.736L597.699 474.692V404.787L658.277 369.831V439.736ZM597.01 403.989L566.721 386.518L536.432 369.04V299.121L596.976 334.077L597.01 403.989ZM535.778 298.33L475.233 333.285V263.374L520.592 237.215L535.778 228.445V298.33ZM597.699 121.967L658.277 87.0112V156.909L597.699 191.858V121.967ZM597.01 193.063V262.589L536.466 227.633V157.715L597.031 192.705L597.01 193.063ZM490.447 112.405L475.254 121.169V51.2568L520.612 25.0984L535.798 16.3354V86.2195L490.447 112.405ZM597.031 50.4514L536.487 15.4955V-54.4231L597.031 -19.4741V50.4514ZM475.254 -160.881L535.798 -195.837V-125.897L479.26 -93.2545L475.254 -90.9415V-160.881ZM474.566 -90.1705V-20.2382L413.987 -55.194V-125.106L474.566 -90.1705ZM413.299 -55.2216L352.761 -20.2657V-90.143L413.299 -125.106V-55.2216ZM352.107 -160.853V-90.9071L321.818 -108.385L291.529 -125.863V-195.809L352.107 -160.853ZM230.33 -160.853L290.888 -195.809V-125.897L234.351 -93.2545L230.31 -90.9071L230.33 -160.853ZM286.868 -122.793L290.875 -125.106V-55.194L230.31 -20.2382V-90.143L286.868 -122.793ZM229.621 -19.0473V50.4789L169.043 15.5231V-54.4231L229.621 -19.4741V-19.0473ZM168.354 -125.897L111.906 -93.2545L107.9 -90.9415V-160.853L168.444 -195.809L168.354 -125.897ZM46.6326 -195.809L107.211 -160.853V-90.9071L46.6326 -125.863V-195.809ZM-14.6 -90.143L45.9442 -125.106V-55.194L-14.6 -20.2382V-90.143ZM-15.2884 -19.0473V50.4789L-45.5777 33.001L-75.867 15.5231V-54.4231L-15.3297 -19.4741L-15.2884 -19.0473ZM-76.5141 -125.897L-131.868 -93.936L-137.058 -90.9415V-160.853L-76.4796 -195.809L-76.5141 -125.897ZM-198.291 -195.809L-137.747 -160.853V-90.9071L-198.291 -125.863V-195.809Z" fill="#1B1B1B"/>
<path opacity="0.3" d="M1446.34 613.247L1376.03 613.247L1411.4 674.479L1339.88 674.479L1304.13 612.558L1375.24 612.558L1410.19 551.98L1269.18 551.98L1233.8 490.788L1162.73 490.788L1198.27 429.212L1163.13 368.323L1093.21 368.323L1128.57 429.59L1057.06 429.59L1021.71 368.323L1021.31 368.323L1021.51 367.979L1021.31 367.635L1021.71 367.635L1056.96 306.574L1057.06 306.402L1127.38 306.402L1092.42 245.824L1021.31 245.824L1056.96 184.075L1057.06 183.903L1198.08 183.903L1163.13 123.358L951.794 123.358L986.764 183.923L987.156 183.923L986.956 184.267L987.156 184.612L986.764 184.612L951.512 245.672L951.409 245.844L879.907 245.844L915.262 184.612L774.254 184.612L738.899 123.379L738.5 123.379L738.7 123.035L738.5 122.691L738.899 122.691L774.151 61.6371L774.254 61.4649L844.559 61.4649L809.603 0.886327L809.203 0.886327L809.403 0.54215L809.203 0.197912L809.603 0.197912L844.854 -60.8627L844.951 -61.0348L915.262 -61.0348L880.306 -121.579L809.203 -121.579L844.854 -183.328L844.951 -183.5L916.453 -183.5L881.091 -122.233L951.009 -122.233L986.261 -183.293L986.364 -183.466L1057.86 -183.466L1022.51 -122.199L1092.82 -122.199L1128.17 -60.9659L1198.08 -60.9659L1162.73 -122.199L1233.8 -122.199L1269.05 -183.259L1269.15 -183.431L1340.68 -183.431L1305.03 -121.724L1304.93 -121.551L1234.63 -121.551L1269.59 -60.9866L1410.19 -60.9866L1374.84 -122.219L1446.34 -122.219L1481.69 -60.9866L1623.5 -60.9866L1587.85 0.76227L1587.75 0.934328L1517.41 0.934331L1552.36 61.513L1552.76 61.513L1552.56 61.8572L1552.76 62.2014L1552.36 62.2014L1517.41 122.704L1587.75 122.704L1623.1 183.923L1623.5 183.923L1623.3 184.267L1623.5 184.612L1623.1 184.612L1587.85 245.672L1587.75 245.844L1446.74 245.844L1481.69 306.423L1623.5 306.423L1587.95 368L1623.2 429.06L1623.5 429.577L1552.4 429.577L1517.14 490.637L1517.04 490.809L1446.74 490.809L1481.69 551.346L1623.5 551.346L1587.95 612.923L1623.2 673.984L1623.5 674.5L1552.01 674.5L1516.64 613.267L1446.34 613.267L1446.34 613.247ZM1446.74 612.558L1516.64 612.558L1548.6 557.211L1551.61 552.014L1481.69 552.014L1455.54 597.331L1446.74 612.558ZM1305.33 613.247L1340.28 673.791L1410.19 673.791L1375.24 613.247L1305.33 613.247ZM1445.95 612.558L1472.1 567.248L1480.92 552.014L1410.99 552.014L1376.03 612.593L1445.95 612.558ZM1410.19 551.291L1392.72 521.002L1375.24 490.713L1305.33 490.713L1322.8 521.002L1340.28 551.291L1410.19 551.291ZM1445.95 490.066L1481.19 429.005L1481.29 428.833L1551.61 428.833L1516.64 368.254L1376.03 368.254L1411.39 429.521L1269.59 429.521L1234.64 490.066L1445.97 490.066L1445.95 490.066ZM1551.61 307.091L1481.69 307.091L1455.35 352.71L1446.74 367.635L1516.64 367.635L1549.29 311.097L1551.61 307.091ZM1445.95 245.135L1481.1 184.247L1445.95 123.358L1445.55 123.358L1445.75 123.014L1445.55 122.67L1445.95 122.67L1481.1 61.7816L1445.95 0.89991L1305.33 0.899916L1340.28 61.4785L1340.68 61.4785L1340.48 61.8228L1340.68 62.1669L1340.28 62.1669L1305.03 123.221L1304.93 123.393L1234.63 123.393L1269.59 183.923L1340.68 183.923L1305.03 245.672L1304.93 245.844L1163.92 245.844L1198.87 306.423L1199.27 306.423L1199.07 306.767L1199.27 307.111L1198.87 307.111L1163.92 367.655L1233.8 367.655L1269.05 306.595L1269.15 306.423L1410.19 306.423L1374.84 245.156L1445.95 245.135ZM1516.64 123.358L1446.74 123.358L1481.69 183.923L1551.61 183.923L1534.13 153.634L1516.64 123.358ZM1549.29 -56.3124L1551.61 -60.3189L1481.69 -60.3189L1455.35 -14.699L1446.74 0.225288L1516.64 0.225285L1549.29 -56.3124ZM1384.77 -14.9675L1376 0.225292L1445.95 0.225289L1472.28 -45.4013L1480.92 -60.2982L1410.99 -60.2982L1384.77 -14.9675ZM1339.45 -60.3189L1269.59 -60.3189L1243.25 -14.699L1234.63 0.225298L1304.53 0.225295L1330.69 -45.1329L1339.45 -60.3189ZM1172.65 -14.9674L1163.88 0.225301L1233.8 0.225298L1260.14 -45.4013L1268.75 -60.3189L1198.87 -60.3189L1172.65 -14.9674ZM1092.19 0.569481L1091.99 0.225304L1092.39 0.225304L1127.34 -60.3189L986.764 -60.3189L951.608 0.569487L986.764 61.458L1127.38 61.458L1092.42 0.879418L1091.99 0.879418L1092.19 0.569481ZM1021.68 -121.551L951.808 -121.551L969.286 -91.2621L986.764 -60.9728L1056.67 -60.9728L1039.19 -91.2621L1021.68 -121.551ZM883.411 -3.76034L881.098 0.246004L951.009 0.246001L985.979 -60.2982L916.074 -60.2982L883.411 -3.76034ZM819.336 107.222L810.387 122.704L880.306 122.704L915.262 62.167L845.35 62.167L819.336 107.222ZM916.453 62.167L916.053 62.167L881.091 122.704L951.009 122.704L985.979 62.167L916.453 62.167ZM916.053 61.4785L985.979 61.4785L951.023 0.899932L881.111 0.899935L898.589 31.1892L916.053 61.4785ZM1093.21 0.899926L1128.16 61.4785L1198.08 61.4785L1163.13 0.899922L1093.21 0.899926L1093.21 0.899926ZM1199.07 61.7885L1199.26 62.1326L1198.87 62.1326L1163.91 122.67L1233.8 122.67L1268.95 61.7816L1233.8 0.934343L1163.92 0.934346L1198.87 61.513L1199.27 61.513L1199.07 61.7885ZM1269.57 62.1326L1234.62 122.67L1304.53 122.67L1339.49 62.1326L1269.57 62.1326ZM1304.13 0.865615L1234.6 0.865618L1269.55 61.4443L1339.49 61.4443L1304.53 0.865615L1304.13 0.865615ZM1172.65 229.915L1163.92 245.19L1233.8 245.19L1260.14 199.57L1268.79 184.612L1198.87 184.612L1172.65 229.915ZM1234.6 245.101L1304.53 245.101L1339.49 184.612L1269.59 184.612L1243.25 230.238L1234.6 245.101ZM1269.59 428.867L1339.49 428.867L1322.01 398.578L1304.53 368.289L1234.63 368.289L1252.11 398.578L1269.59 428.867ZM1410.2 307.091L1340.28 307.091L1314.12 352.442L1305.36 367.635L1375.24 367.635L1401.4 322.277L1410.2 307.091ZM1339.5 307.091L1269.59 307.091L1234.64 367.635L1304.53 367.635L1330.69 322.277L1339.5 307.091ZM1374.85 368.323L1305.32 368.323L1322.8 398.613L1340.27 428.902L1410.19 428.902L1375.24 368.323L1374.85 368.323ZM1384.81 352.442L1376.04 367.635L1445.95 367.635L1472.28 322.015L1480.92 307.091L1410.99 307.091L1384.81 352.442ZM1339.5 551.326L1322.02 521.036L1304.54 490.747L1234.63 490.747L1269.59 551.326L1339.5 551.326ZM1233.44 490.1L1233.8 490.1L1268.75 429.556L1198.87 429.556L1163.92 490.1L1233.44 490.1ZM1268.79 428.867L1251.31 398.578L1233.84 368.289L1163.92 368.289L1198.87 428.867L1268.79 428.867ZM1163.13 367.6L1198.08 307.056L1128.17 307.056L1101.83 352.676L1093.21 367.6L1163.13 367.6L1163.13 367.6ZM1057.47 428.867L1127.38 428.867L1092.42 368.289L1022.51 368.289L1057.47 428.867ZM1057.47 307.091L1022.52 367.635L1092.42 367.635L1118.76 322.015L1127.38 307.091L1057.47 307.091ZM1128.58 306.402L1198.1 306.402L1163.15 245.824L1093.21 245.824L1128.17 306.402L1128.58 306.402ZM1057.46 184.612L1022.51 245.19L1092.42 245.19L1118.76 199.57L1127.38 184.612L1057.46 184.612ZM1101.83 230.252L1093.21 245.19L1163.13 245.19L1189.28 199.839L1198.08 184.612L1128.17 184.612L1101.83 230.252ZM1199.27 183.923L1268.79 183.923L1233.8 123.393L1163.92 123.393L1198.87 183.923L1199.27 183.923ZM1163.13 122.691L1198.08 62.1533L1128.17 62.1533L1102.01 107.463L1093.21 122.691L1163.13 122.691ZM1118.58 77.3805L1127.38 62.1533L1057.46 62.1533L1031.41 107.222L1022.46 122.704L1092.42 122.704L1118.58 77.3805ZM1047.73 77.6353L1056.68 62.1533L986.764 62.1533L951.808 122.691L1021.71 122.691L1047.73 77.6353ZM881.098 245.19L951.009 245.19L985.979 184.612L916.074 184.612L881.098 245.19ZM774.647 183.923L985.979 183.923L951.023 123.379L739.691 123.379L774.647 183.923ZM774.647 62.1534L739.698 122.691L809.603 122.691L835.616 77.6353L844.565 62.1534L774.647 62.1534ZM845.35 61.4649L915.262 61.4649L897.784 31.1756L880.306 0.886324L810.394 0.886327L845.35 61.4649ZM845.35 -60.312L810.394 0.232213L880.306 0.23221L912.949 -56.3055L915.262 -60.312L845.35 -60.312ZM916.46 -61.0004L985.979 -61.0004L968.501 -91.2897L951.023 -121.579L881.111 -121.579L916.074 -61.0348L916.46 -61.0004ZM915.262 -182.777L845.35 -182.777L810.394 -122.199L880.306 -122.199L915.262 -182.777ZM986.764 -182.777L951.808 -122.199L1021.71 -122.199L1056.67 -182.777L986.764 -182.777ZM1022.51 -121.51L1039.98 -91.2208L1057.46 -60.9315L1127.38 -60.9315L1092.42 -121.476L1022.51 -121.51ZM1128.17 -60.2775L1093.21 0.266625L1163.13 0.266622L1189.28 -45.0915L1198.05 -60.2775L1128.17 -60.2775ZM1304.53 -122.199L1339.49 -182.777L1269.59 -182.777L1234.64 -122.199L1304.53 -122.199ZM1233.44 -121.51L1163.91 -121.51L1198.87 -60.9659L1268.79 -60.9659L1233.8 -121.531L1233.44 -121.51ZM1314.09 -14.9468L1305.33 0.245986L1375.24 0.245983L1401.4 -45.1122L1410.16 -60.2982L1340.28 -60.2982L1314.09 -14.9468ZM1376.05 -121.531L1411 -60.9866L1480.92 -60.9866L1445.97 -121.531L1376.05 -121.531ZM1587.38 0.245973L1622.34 -60.2982L1552.4 -60.2982L1519.75 -3.76037L1517.44 0.245976L1587.38 0.245973ZM1516.67 0.934331L1446.74 0.934334L1481.69 61.513L1551.61 61.513L1516.67 0.934331ZM1481.72 62.2014L1446.77 122.739L1516.64 122.739L1551.61 62.2014L1481.72 62.2014ZM1587.35 123.393L1517.41 123.393L1534.89 153.682L1552.36 183.971L1622.31 183.971L1587.35 123.393ZM1587.35 245.17L1622.31 184.612L1552.4 184.612L1519.75 241.149L1517.41 245.19L1587.35 245.17ZM1549.29 188.632L1551.61 184.625L1481.69 184.625L1446.74 245.19L1516.64 245.19L1549.29 188.632ZM1445.55 245.879L1376.02 245.879L1410.98 306.457L1480.92 306.457L1445.97 245.879L1445.55 245.879ZM1552.4 307.146L1519.75 363.594L1517.44 367.6L1587.35 367.6L1622.31 307.056L1552.4 307.146ZM1622.31 428.867L1587.35 368.289L1517.41 368.289L1552.36 428.867L1622.31 428.867ZM1516.64 490.1L1551.61 429.556L1481.69 429.556L1446.74 490.1L1516.64 490.1ZM1445.55 490.788L1376.02 490.788L1393.5 521.078L1410.98 551.367L1480.92 551.367L1445.97 490.83L1445.55 490.788ZM1552.4 552.014L1520.44 607.368L1517.44 612.558L1587.35 612.558L1622.31 551.98L1552.4 552.014ZM1622.31 673.791L1587.35 613.247L1517.41 613.247L1552.36 673.791L1622.31 673.791Z" fill="#1B1B1B"/>
</g>
<defs>
<filter id="filter0_f_2417_467" x="762" y="-594" width="1319" height="1319" filterUnits="userSpaceOnUse" color-interpolation-filters="sRGB">
<feFlood flood-opacity="0" result="BackgroundImageFix"/>
<feBlend mode="normal" in="SourceGraphic" in2="BackgroundImageFix" result="shape"/>
<feGaussianBlur stdDeviation="250" result="effect1_foregroundBlur_2417_467"/>
</filter>
<filter id="filter1_f_2417_467" x="-638" y="-238" width="1372" height="1373" filterUnits="userSpaceOnUse" color-interpolation-filters="sRGB">
<feFlood flood-opacity="0" result="BackgroundImageFix"/>
<feBlend mode="normal" in="SourceGraphic" in2="BackgroundImageFix" result="shape"/>
<feGaussianBlur stdDeviation="250" result="effect1_foregroundBlur_2417_467"/>
</filter>
</defs>
</svg>
