<svg width="24" height="24" viewBox="0 0 24 24" fill="none" xmlns="http://www.w3.org/2000/svg">
<path d="M4.99981 8.99849C4.99866 8.79987 5.05668 8.6054 5.16648 8.43988C5.27628 8.27436 5.43289 8.14529 5.61633 8.06912C5.79978 7.99295 6.00175 7.97314 6.19649 8.01221C6.39124 8.05128 6.56994 8.14746 6.70981 8.28849L11.9998 13.5885L17.2898 8.28849C17.4781 8.10019 17.7335 7.9944 17.9998 7.9944C18.1317 7.9944 18.2622 8.02037 18.3841 8.07083C18.5059 8.12129 18.6166 8.19525 18.7098 8.28849C18.8031 8.38173 18.877 8.49242 18.9275 8.61424C18.9779 8.73606 19.0039 8.86663 19.0039 8.99849C19.0039 9.26479 18.8981 9.52019 18.7098 9.70849L12.7098 15.7085C12.5225 15.8947 12.269 15.9993 12.0048 15.9993C11.7406 15.9993 11.4872 15.8947 11.2998 15.7085L5.29981 9.70849C5.20532 9.61588 5.13016 9.50543 5.07866 9.38356C5.02716 9.26168 5.00036 9.1308 4.99981 8.99849Z" fill="#E7E8EC"/>
</svg>
