<svg width="54" height="54" viewBox="0 0 54 54" fill="none" xmlns="http://www.w3.org/2000/svg">
<g clip-path="url(#clip0_2417_560)">
<path d="M49.2539 8.01562H4.74609C2.13448 8.01562 0 10.1407 0 12.7617V41.2383C0 43.8602 2.13585 45.9844 4.74609 45.9844H49.2539C51.8655 45.9844 54 43.8593 54 41.2383V12.7617C54 10.1401 51.8645 8.01562 49.2539 8.01562ZM48.5251 11.1797L28.226 31.5451C27.6075 32.1654 26.3928 32.1659 25.774 31.5451L5.47488 11.1797H48.5251ZM3.16406 40.6566V13.3434L16.7764 27L3.16406 40.6566ZM5.47488 42.8203L19.0101 29.241L23.5331 33.7788C25.3866 35.6383 28.6141 35.6376 30.467 33.7788L34.99 29.2411L48.5251 42.8203H5.47488ZM50.8359 40.6566L37.2236 27L50.8359 13.3434V40.6566Z" fill="white"/>
</g>
<defs>
<clipPath id="clip0_2417_560">
<rect width="54" height="54" fill="white"/>
</clipPath>
</defs>
</svg>
